<svg width="12" height="45" viewBox="0 0 12 45" fill="none" xmlns="http://www.w3.org/2000/svg">
<path d="M4.84 25.96H9.8V28H0.7V27.42C2.68667 25.2467 4.12 23.6267 5 22.56C5.89333 21.48 6.48667 20.66 6.78 20.1C7.07333 19.54 7.22 18.9867 7.22 18.44C7.22 18.0533 7.13333 17.7133 6.96 17.42C6.8 17.1267 6.56667 16.9 6.26 16.74C5.96667 16.5667 5.62 16.48 5.22 16.48C4.59333 16.48 4.08667 16.6667 3.7 17.04C3.32667 17.4 3.14 17.8733 3.14 18.46V18.76H0.98V18.46C0.98 17.26 1.36667 16.2933 2.14 15.56C2.91333 14.8133 3.93333 14.44 5.2 14.44C6.44 14.44 7.44667 14.8133 8.22 15.56C9.00667 16.3067 9.4 17.2667 9.4 18.44C9.4 19.0533 9.28667 19.6467 9.06 20.22C8.84667 20.7933 8.40667 21.5333 7.74 22.44C7.08667 23.3333 6.12 24.5067 4.84 25.96Z" fill="#005350"/>
</svg>
