<svg width="12" height="45" viewBox="0 0 12 45" fill="none" xmlns="http://www.w3.org/2000/svg">
<path d="M6.44 19.68C7.48 19.8667 8.31333 20.34 8.94 21.1C9.58 21.86 9.9 22.7667 9.9 23.82C9.9 25.1 9.46 26.16 8.58 27C7.71333 27.8267 6.62667 28.24 5.32 28.24C4.05333 28.24 3 27.8467 2.16 27.06C1.33333 26.26 0.893333 25.2333 0.84 23.98H3C3.04 24.6467 3.27333 25.1867 3.7 25.6C4.12667 26 4.66667 26.2 5.32 26.2C6.01333 26.2 6.58667 25.9733 7.04 25.52C7.49333 25.0533 7.72 24.4667 7.72 23.76C7.72 23.4133 7.65333 23.0933 7.52 22.8C7.38667 22.4933 7.20667 22.2333 6.98 22.02C6.75333 21.8067 6.48 21.6467 6.16 21.54C5.84 21.42 5.49333 21.36 5.12 21.36H3.44V20.94L6.2 16.66H1.24V14.7H9.38V15.14L6.44 19.68Z" fill="#005350"/>
</svg>
