<svg viewBox="0 0 80 80" fill="none" xmlns="http://www.w3.org/2000/svg">
<path d="M38.662 66.1152C38.8616 66.016 39.0767 65.967 39.2906 65.967C39.5882 65.967 39.8846 66.0614 40.132 66.2479C41.0906 66.9758 42.2595 67.369 43.463 67.369H43.5C46.5992 67.369 49.1115 64.8555 49.1115 61.7564C49.1115 58.6573 46.598 56.1438 43.5 56.1438H43.469C42.263 56.1438 41.0918 56.537 40.132 57.2649L38.662 66.1152ZM38.662 66.1152C38.1887 66.3531 37.8887 66.8395 37.8887 67.3702V79.2497L38.662 66.1152ZM40.5852 57.8624L40.5834 57.8638C40.2037 58.15 39.7482 58.2969 39.2894 58.2969C38.9605 58.2969 38.6316 58.2215 38.3265 58.0684L40.5852 57.8624ZM40.5852 57.8624C41.4143 57.2337 42.4263 56.8938 43.469 56.8938H43.5C46.1837 56.8938 48.3615 59.0714 48.3615 61.7564C48.3615 64.4415 46.1847 66.619 43.5 66.619H43.463C42.4232 66.619 41.4136 66.2793 40.5856 65.6506L40.5834 65.6489M40.5852 57.8624L40.5834 65.6489M40.5834 65.6489C40.2023 65.3617 39.7465 65.217 39.2906 65.217C38.9619 65.217 38.6324 65.2924 38.3282 65.4436L38.3252 65.4451M40.5834 65.6489L38.3252 65.4451M38.3252 65.4451C37.5983 65.8104 37.1387 66.5562 37.1387 67.3702V79.2497H0.75V42.8611H9.30198C8.49905 46.3802 9.84006 50.0914 12.7961 52.2736L12.7961 52.2736M38.3252 65.4451L12.7961 52.2736M12.7961 52.2736C14.4163 53.4696 16.3302 54.0672 18.2434 54.0672C20.1576 54.0672 22.0717 53.4697 23.6899 52.2733M12.7961 52.2736L23.6899 52.2733M23.6899 52.2733C26.6469 50.0909 27.9866 46.3798 27.1845 42.8611H37.1387V56.1426C37.1387 56.957 37.5978 57.7039 38.3265 58.0683C38.3259 58.0681 38.3255 58.0678 38.3249 58.0675L23.6899 52.2733Z" stroke="#AAAAAA" stroke-width="1.5"/>
<path d="M80.0001 0H42.1115V12.6295C42.1115 13.1602 41.8115 13.6467 41.3382 13.8845C40.8613 14.1223 40.2936 14.0709 39.8681 13.7518C38.9 13.0168 37.7168 12.6224 36.5001 12.6307C33.401 12.6307 30.8887 15.1442 30.8887 18.2433C30.8887 21.3425 33.4022 23.8559 36.5001 23.8559C37.718 23.8631 38.9012 23.4687 39.8681 22.7349C40.2936 22.4146 40.8613 22.362 41.3382 22.6022C41.8115 22.8388 42.1115 23.3253 42.1115 23.8571V37.8898H54.4745C52.4236 34.3521 53.2112 29.8498 56.3426 27.2204C59.474 24.5898 64.0432 24.5898 67.1746 27.2204C70.306 29.8498 71.0936 34.3521 69.0439 37.8898H80.0013V0H80.0001Z" fill="#6EB4E0"/>
<path d="M0.75293 37.1398H12.6325C13.4464 37.1398 14.1923 37.5995 14.5576 38.3264L14.5586 38.3284C14.9229 39.0589 14.8444 39.9303 14.3548 40.5832L14.3521 40.5868C13.7171 41.4231 13.3764 42.4451 13.3836 43.4961L13.3837 43.5012C13.3837 46.1859 15.5612 48.3627 18.2463 48.3627C20.9313 48.3627 23.1089 46.1849 23.1089 43.5012V43.4968C23.1151 42.4439 22.7742 41.4217 22.1404 40.5866L22.1386 40.5843C21.6476 39.9321 21.566 39.0588 21.9353 38.3257M0.75293 37.1398L22.6051 38.6631M0.75293 37.1398V0.75H37.1428V9.3029C36.4723 9.15042 35.7858 9.07325 35.096 9.07325L35.0853 9.07324L35.0834 9.07325C31.4402 9.08236 28.1457 11.2481 26.6955 14.5899L26.6954 14.59C25.2445 17.9356 25.909 21.8197 28.3927 24.4872L28.942 23.9767M0.75293 37.1398L28.3927 24.4873M21.9353 38.3257L22.6051 38.6631M21.9353 38.3257C21.935 38.3264 21.9347 38.327 21.9343 38.3277L22.6051 38.6631M21.9353 38.3257C22.3 37.5982 23.0463 37.1398 23.8601 37.1398H37.1428M22.6051 38.6631C22.8418 38.1898 23.3282 37.8898 23.8601 37.8898H37.1428V37.1398M37.1428 37.1398H37.8928V26.98C37.6444 27.0594 37.3941 27.1276 37.1428 27.1849M37.1428 37.1398V27.1849M37.1428 27.1849C36.4685 27.3386 35.7861 27.4134 35.1092 27.4134C32.6053 27.4134 30.158 26.3867 28.3927 24.4873M37.1428 27.1849V26.4139C36.47 26.5818 35.7867 26.6634 35.1092 26.6634C32.8096 26.6634 30.5627 25.7204 28.942 23.9767M28.3927 24.4873L35.0853 9.82325C31.7399 9.83161 28.7149 11.8204 27.3835 14.8885C26.0508 17.9613 26.6616 21.5277 28.942 23.9767M28.3927 24.4873C28.3929 24.4875 28.393 24.4876 28.3931 24.4878L28.942 23.9767" stroke="#AAAAAA" stroke-width="1.5"/>
<path d="M57.1449 33.5565L57.1446 33.5573C56.481 35.544 57.1651 37.7298 58.8398 38.9861C59.5808 39.5419 59.8835 40.5089 59.5901 41.3889C59.2969 42.2684 58.4752 42.8615 57.5484 42.8615H42.8613V52.8168C43.5361 52.6629 44.2178 52.5879 44.8949 52.5879C47.746 52.5879 50.5094 53.9214 52.2735 56.3114L57.1449 33.5565ZM57.1449 33.5565C57.8054 31.5719 59.6639 30.2319 61.7566 30.2319C63.8489 30.2319 65.7079 31.5716 66.3721 33.5569C67.0326 35.5446 66.3498 37.7303 64.6758 38.9861C63.9348 39.5419 63.6325 40.5097 63.924 41.388L63.9246 41.3898M57.1449 33.5565L63.9246 41.3898M63.9246 41.3898C64.2192 42.2698 65.0393 42.8615 65.9673 42.8615M63.9246 41.3898L65.9673 42.8615M65.9673 42.8615H79.25M65.9673 42.8615H79.25M79.25 42.8615V79.2501H42.8613V70.6979C43.5366 70.8518 44.2189 70.9269 44.8961 70.9269C47.7473 70.9269 50.511 69.5932 52.2739 67.204C54.6659 63.9658 54.6662 59.5481 52.2739 56.312L79.25 42.8615Z" stroke="#AAAAAA" stroke-width="1.5"/>
</svg>
