<svg viewBox="0 0 72 92" fill="none" xmlns="http://www.w3.org/2000/svg">
<path d="M70.9987 85.3232C70.9987 88.199 68.6659 90.5332 65.7887 90.5332H6.21C3.33413 90.5332 1 88.2004 1 85.3232V6.21001C1 3.33414 3.3328 1 6.21 1H45.3994L71 28.0225V85.3232H70.9987Z" stroke="#AAAAAA" stroke-width="1.5" stroke-miterlimit="10" stroke-linecap="round" stroke-linejoin="round"/>
<path d="M70.9996 27.9328H50.6117C47.7359 27.9328 45.4017 25.6 45.4017 22.7228L45.4004 1L70.9996 27.9328Z" stroke="#AAAAAA" stroke-width="1.5" stroke-miterlimit="10" stroke-linecap="round" stroke-linejoin="round"/>
<path d="M18.8682 46.4466C22.409 46.4466 25.2794 43.5762 25.2794 40.0354C25.2794 36.4947 22.409 33.6243 18.8682 33.6243C15.3274 33.6243 12.457 36.4947 12.457 40.0354C12.457 43.5762 15.3274 46.4466 18.8682 46.4466Z" fill="#6EB4E0"/>
<path d="M13.584 69.2221L27.4336 48.9091L32.6664 57.1167L43.7445 41.8318L61.4933 69.2221H13.584Z" fill="#6EB4E0"/>
</svg>
