<svg viewBox="0 0 99 115" fill="none" xmlns="http://www.w3.org/2000/svg">
<path d="M98.1452 5.78394L98.1501 5.76387C98.2149 5.49756 98.2499 5.21685 98.25 4.92887C98.2483 2.9879 96.7502 1.47046 94.9616 1.47046H94.9514H4.04082C3.07696 1.47046 2.15609 1.91474 1.52638 2.69726C0.89585 3.4829 0.627856 4.52568 0.802102 5.54283C0.802133 5.54301 0.802165 5.5432 0.802197 5.54338L18.984 110.631L98.1452 5.78394ZM98.1452 5.78394L98.1414 5.80424M98.1452 5.78394L98.1414 5.80424M98.1414 5.80424L78.6543 110.676C78.3489 112.317 76.9775 113.469 75.4239 113.469H22.2229C20.6537 113.469 19.2731 112.294 18.9841 110.631L98.1414 5.80424Z" stroke="#AAAAAA" stroke-width="1.5"/>
</svg>
