<svg viewBox="0 0 14 14" fill="none" xmlns="http://www.w3.org/2000/svg">
<path d="M10.7188 13.9989H3.28125C1.47197 13.9989 0 12.527 0 10.7177V6.11654C0 5.09959 0.482754 4.12427 1.29134 3.50753L5.01009 0.671192C6.18174 -0.222429 7.81826 -0.222429 8.98991 0.671192L10.1719 1.5719V0.873946C10.2008 0.148353 11.237 0.148899 11.2656 0.873946V2.6762C11.2656 2.88409 11.1477 3.074 10.9614 3.16628C10.7751 3.25854 10.5526 3.23716 10.3873 3.11118L8.32677 1.54102C7.54551 0.945149 6.45444 0.945149 5.67336 1.54089L1.95461 4.37723C1.41559 4.78834 1.09375 5.43855 1.09375 6.11654V10.7177C1.09375 11.9239 2.07506 12.9052 3.28125 12.9052H10.7188C11.9249 12.9052 12.9062 11.9239 12.9062 10.7177V6.11654C12.9062 5.43024 12.5881 4.77781 12.0551 4.37127C11.8149 4.18809 11.7687 3.84493 11.9519 3.60479C12.1351 3.36463 12.4783 3.31845 12.7184 3.50163C13.5209 4.11369 14 5.09123 14 6.11654V10.7177C14 12.527 12.528 13.9989 10.7188 13.9989ZM5.90625 6.31535C5.52871 6.31535 5.22266 6.62141 5.22266 6.99895C5.25878 7.90594 6.55405 7.90525 6.58984 6.99895C6.58984 6.62138 6.28379 6.31535 5.90625 6.31535ZM8.77734 6.99892C8.74122 7.90591 7.44595 7.90523 7.41016 6.99892C7.44628 6.09193 8.74155 6.09264 8.77734 6.99892ZM6.58984 9.18642C6.55372 10.0934 5.25845 10.0927 5.22266 9.18642C5.25878 8.27943 6.55405 8.28014 6.58984 9.18642ZM8.77734 9.18642C8.74122 10.0934 7.44595 10.0927 7.41016 9.18642C7.44628 8.27943 8.74155 8.28014 8.77734 9.18642Z" fill="#005350"/>
</svg>
