<svg viewBox="0 0 17 18" fill="none" xmlns="http://www.w3.org/2000/svg">
<path d="M16.9568 4.99901C16.917 4.09557 16.7709 3.47444 16.5616 2.93625C16.3457 2.36496 16.0135 1.85346 15.5783 1.42828C15.1532 0.996475 14.6383 0.660934 14.0736 0.448409C13.5323 0.239111 12.9144 0.0930358 12.011 0.0532061C11.1008 0.00998238 10.8119 0 8.50336 0C6.19487 0 5.90588 0.00998239 4.99908 0.0498454C4.09564 0.0896751 3.47454 0.235884 2.93645 0.445048C2.36499 0.660934 1.8535 0.993114 1.42835 1.42828C0.996508 1.8535 0.6611 2.36832 0.448442 2.93302C0.239145 3.47447 0.0930358 4.09221 0.0532061 4.99565C0.00998238 5.90585 0 6.1948 0 8.50333C0 10.8119 0.00998238 11.1008 0.0498121 12.0076C0.0896418 12.9111 0.235884 13.5322 0.445181 14.0704C0.661067 14.6417 0.996475 15.1532 1.42831 15.5783C1.85346 16.0101 2.36835 16.3457 2.93302 16.5582C3.47447 16.7675 4.09221 16.9136 4.99578 16.9534C5.90248 16.9934 6.19157 17.0032 8.50007 17.0032C10.8086 17.0032 11.0975 16.9934 12.0043 16.9534C12.9078 16.9136 13.5289 16.7675 14.067 16.5582C15.2097 16.1164 16.1131 15.2129 16.555 14.0703C16.7641 13.5289 16.9104 12.911 16.9502 12.0076C16.99 11.1007 17 10.8118 17 8.5033C17 6.1948 16.9967 5.90585 16.9568 4.99901ZM15.4257 11.9412C15.3891 12.7716 15.2496 13.22 15.1333 13.5189C14.8476 14.2597 14.2597 14.8476 13.519 15.1333C13.22 15.2496 12.7684 15.3891 11.9412 15.4255C11.0444 15.4655 10.7754 15.4753 8.50672 15.4753C6.23803 15.4753 5.96571 15.4655 5.07208 15.4255C4.24168 15.389 3.79324 15.2496 3.49433 15.1333C3.12572 14.9971 2.79018 14.7812 2.51779 14.4989C2.23549 14.2231 2.01954 13.891 1.88334 13.5223C1.76708 13.2234 1.62759 12.7716 1.59116 11.9446C1.5512 11.0477 1.54131 10.7786 1.54131 8.50995C1.54131 6.24125 1.5512 5.9689 1.59116 5.07544C1.62763 4.24504 1.76708 3.7966 1.88334 3.49766C2.01957 3.12891 2.23549 2.7935 2.52118 2.52102C2.79676 2.23868 3.12894 2.02276 3.49769 1.88667C3.79663 1.77041 4.24847 1.63092 5.07548 1.59432C5.97229 1.55449 6.24142 1.54451 8.50998 1.54451C10.782 1.54451 11.051 1.55449 11.9446 1.59432C12.775 1.63092 13.2234 1.77041 13.5224 1.88667C13.891 2.02276 14.2265 2.23868 14.4989 2.52102C14.7812 2.79673 14.9971 3.12891 15.1333 3.49766C15.2496 3.7966 15.3891 4.24827 15.4257 5.07544C15.4655 5.9723 15.4755 6.24125 15.4755 8.50995C15.4755 10.7786 15.4655 11.0444 15.4257 11.9412Z" fill="#005350"/>
<path d="M8.50318 4.13574C6.09177 4.13574 4.13525 6.09212 4.13525 8.50367C4.13525 10.9152 6.09177 12.8716 8.50318 12.8716C10.9147 12.8716 12.8711 10.9152 12.8711 8.50367C12.8711 6.09212 10.9147 4.13574 8.50318 4.13574ZM8.50318 11.337C6.93877 11.337 5.66985 10.0682 5.66985 8.50367C5.66985 6.93916 6.93881 5.6703 8.50318 5.6703C10.0677 5.6703 11.3365 6.93913 11.3365 8.50367C11.3365 10.0682 10.0677 11.337 8.50318 11.337Z" fill="#005350"/>
<path d="M14.0639 3.96306C14.0639 4.52617 13.6074 4.98279 13.0441 4.98279C12.481 4.98279 12.0244 4.5262 12.0244 3.96306C12.0244 3.39982 12.481 2.94336 13.0441 2.94336C13.6074 2.94336 14.0639 3.39982 14.0639 3.96306Z" fill="#005350"/>
</svg>
