<svg viewBox="0 0 83 85" fill="none" xmlns="http://www.w3.org/2000/svg">
<path d="M41.3514 83.6407C63.6368 83.6407 81.7028 65.141 81.7028 42.3204C81.7028 19.4998 63.6368 1 41.3514 1C19.0659 1 1 19.4998 1 42.3204C1 65.141 19.0659 83.6407 41.3514 83.6407Z" stroke="#AAAAAA" stroke-width="1.5" stroke-miterlimit="10"/>
<path d="M39.7764 25.6474C39.7764 25.6474 32.6984 18.8475 29.7432 21.683C24.9641 26.2699 35.3079 33.7048 36.2555 37.903C37.2031 42.1013 35.8929 51.9595 42.0644 51.9595C48.5344 51.9595 45.028 39.8251 46.0155 35.2779C47.003 30.7306 55.0878 22.4566 50.3365 19.5196C45.3604 16.4464 39.7764 25.6474 39.7764 25.6474Z" fill="#E7B56E"/>
<path d="M59.4696 39.0615C61.4828 39.0615 63.1149 37.3902 63.1149 35.3286C63.1149 33.267 61.4828 31.5957 59.4696 31.5957C57.4563 31.5957 55.8242 33.267 55.8242 35.3286C55.8242 37.3902 57.4563 39.0615 59.4696 39.0615Z" fill="#E7B56E"/>
<path d="M33.7791 65.6745C35.8468 65.6745 37.523 63.9581 37.523 61.8407C37.523 59.7233 35.8468 58.0068 33.7791 58.0068C31.7114 58.0068 30.0352 59.7233 30.0352 61.8407C30.0352 63.9581 31.7114 65.6745 33.7791 65.6745Z" fill="#E7B56E"/>
<path d="M22.5858 35.2342C22.0395 34.5497 21.2636 34.124 20.4042 34.0361C19.5436 33.9482 18.7024 34.2069 18.034 34.7676C17.3644 35.327 16.9498 36.1216 16.8628 37.0016C16.5788 39.9127 17.4176 42.7606 19.2282 45.0256C21.0363 47.2893 23.5975 48.6966 26.4391 48.9862C26.8561 49.0283 27.2731 48.9899 27.6719 48.8698C27.8266 48.8228 27.9813 48.7646 28.1264 48.6929C29.1574 48.2015 29.8656 47.1767 29.9793 46.0207C30.1569 44.2037 28.8576 42.5774 27.0833 42.3955C25.9592 42.2804 24.9476 41.7234 24.2332 40.8286C23.5189 39.9349 23.1877 38.8086 23.3002 37.6588C23.386 36.7801 23.1334 35.9186 22.5858 35.2342Z" fill="#E7B56E"/>
<path d="M52.5506 55.4939C52.014 55.9952 51.6985 56.6821 51.6671 57.4272C51.6332 58.1723 51.8846 58.8852 52.3754 59.4335C52.8637 59.9855 53.5357 60.3073 54.2621 60.3407C56.6649 60.4533 58.9674 59.6006 60.7442 57.9396C62.5209 56.2798 63.5592 54.0099 63.6691 51.5519C63.6849 51.1905 63.6341 50.8328 63.5181 50.4949C63.4721 50.3649 63.4178 50.2337 63.3513 50.1112C62.9017 49.246 62.0278 48.6829 61.0729 48.6383C59.573 48.5665 58.2954 49.7584 58.2277 51.2944C58.1854 52.2672 57.7733 53.1633 57.0722 53.8193C56.37 54.4753 55.4611 54.8119 54.5123 54.7686C53.7822 54.734 53.0873 54.9914 52.5506 55.4939Z" fill="#E7B56E"/>
</svg>
