<svg viewBox="0 0 49 49" fill="none" xmlns="http://www.w3.org/2000/svg">
<path d="M26.4948 31.3748C26.4948 31.3748 26.6862 37.9463 31.918 40.1794L4.80212 44.2627L26.4948 31.3748Z" fill="#E7B56E"/>
<path d="M44.5781 48.2822C44.5781 48.6786 44.2568 49 43.8604 49H9.20835C8.81195 49 8.49058 48.6786 8.49058 48.2822V45.165L5.26319 45.7337C4.94861 45.7892 4.4209 45.5866 4.4209 45.0269V0.717773C4.4209 0.321371 4.74218 0 5.13868 0H39.7907C40.1871 0 40.5084 0.321371 40.5084 0.717773V3.25534H43.8604C44.2568 3.25534 44.5781 3.57671 44.5781 3.97312V48.2822ZM43.1426 4.69089H40.5084V32.6617C40.5084 36.6369 37.6734 40.0217 33.7675 40.7102L9.92613 44.9119V47.5645H43.1426V4.69089ZM8.76228 43.6595L30.1336 39.893C27.6969 38.4771 26.7156 35.5173 26.4871 32.8588L8.76228 43.6595ZM26.7847 30.9963C27.4015 30.7752 27.7651 30.9876 27.8755 31.6335C27.7536 35.4038 30.4011 39.8124 33.5229 39.2955C36.7451 38.7621 39.0729 35.9373 39.0729 32.6618V1.43555H5.85645V43.749L26.7847 30.9963Z" fill="#AAAAAA"/>
<path d="M33.4203 8.7063H11.5104C10.56 8.67338 10.5608 7.30339 11.5104 7.27075H33.4203C34.3706 7.30367 34.37 8.67367 33.4203 8.7063Z" fill="#AAAAAA"/>
<path d="M33.4203 13.1318H11.5104C10.56 13.0989 10.5608 11.7289 11.5104 11.6963H33.4203C34.3706 11.7293 34.37 13.0993 33.4203 13.1318Z" fill="#AAAAAA"/>
<path d="M33.4203 17.5574H11.5104C10.56 17.5245 10.5608 16.1545 11.5104 16.1218H33.4203C34.3706 16.1547 34.37 17.5247 33.4203 17.5574Z" fill="#AAAAAA"/>
<path d="M33.4203 21.9832H11.5104C10.56 21.9502 10.5608 20.5802 11.5104 20.5476H33.4203C34.3706 20.5805 34.37 21.9505 33.4203 21.9832Z" fill="#AAAAAA"/>
</svg>
