<svg viewBox="0 0 53 65" fill="none" xmlns="http://www.w3.org/2000/svg">
<path d="M13.1814 32.1066C12.2252 33.0859 11.6542 34.3842 11.572 35.7656C11.4984 37.0148 11.0096 38.1612 10.1953 38.9951L7.06394 42.2005C6.8014 42.4704 6.65625 42.8278 6.65625 43.2092C6.65625 43.5906 6.8014 43.948 7.06394 44.218L9.17497 46.3797C9.44712 46.6573 9.80358 46.7961 10.1611 46.7961C10.5165 46.7961 10.873 46.6573 11.1451 46.3797L14.2754 43.1732C15.0897 42.3393 16.2103 41.8388 17.4302 41.7634C18.7781 41.6792 20.046 41.0934 21.0023 40.1153L39.0666 21.6172L40.2171 22.7953C40.4989 23.0827 40.8713 23.2401 41.2684 23.2401C41.6654 23.2401 42.0389 23.0816 42.3185 22.7953L45.8853 19.1429C46.166 18.8555 46.3207 18.474 46.3207 18.0675C46.3207 17.6598 46.1649 17.2773 45.8853 16.9899L44.9002 15.9812L50.0262 10.7321C52.9953 7.69276 51.7338 4.32013 50.0252 2.57042C48.3176 0.822904 44.3111 0.22947 42.2065 2.38682L36.915 7.80423L35.7656 6.62611C35.4849 6.33868 35.1114 6.1802 34.7143 6.1802C34.3173 6.1802 33.9438 6.33977 33.6631 6.62611L30.0963 10.2774C29.8157 10.567 29.662 10.9474 29.662 11.355C29.662 11.7605 29.8167 12.1441 30.0963 12.4304L31.2479 13.6085L13.1814 32.1066Z" stroke="#AAAAAA" stroke-width="1.5" stroke-miterlimit="10" stroke-linecap="round" stroke-linejoin="round"/>
<path d="M30.7852 13.1436L39.105 21.6632" stroke="#AAAAAA" stroke-width="1.5" stroke-miterlimit="10" stroke-linecap="round" stroke-linejoin="round"/>
<path d="M4.99808 50.6299C4.67032 50.6299 4.36268 50.7959 4.17573 51.0709C3.47761 52.1057 0 56.4932 0 58.9492C0 61.7712 2.24347 64.0685 4.99927 64.0685C7.75508 64.0685 9.99855 61.7712 9.99855 58.9492C9.99855 56.4932 6.52094 52.1057 5.82282 51.0709C5.6335 50.7947 5.32703 50.6299 4.99808 50.6299Z" fill="#E7B56E"/>
</svg>
