<svg viewBox="0 0 101 77" fill="none" xmlns="http://www.w3.org/2000/svg">
<path d="M38.1816 63.794C38.1816 65.0781 39.5374 66.0674 40.8215 66.0674H69.3993L85.9848 76.0001V66.0674H96.6239C97.908 66.0674 99.2638 65.0781 99.2638 63.794V21.9425C99.2638 20.6585 97.908 19.5908 96.6239 19.5908H40.8215C39.5374 19.5908 38.1816 20.6585 38.1816 21.9425V63.794Z" fill="#FCFCFC" stroke="#AAAAAA" stroke-width="1.5" stroke-miterlimit="10" stroke-linecap="round" stroke-linejoin="round"/>
<path d="M52.791 36.8535H85.9886" stroke="#AAAAAA" stroke-width="1.5" stroke-miterlimit="10" stroke-linecap="round" stroke-linejoin="round"/>
<path d="M52.791 47.4763H85.9886" stroke="#AAAAAA" stroke-width="1.5" stroke-miterlimit="10" stroke-linecap="round" stroke-linejoin="round"/>
<path d="M70.0509 51.4603C70.0509 52.9263 68.8611 54.1161 67.3951 54.1161H34.7526L15.6069 65.4032V54.1161H3.6558C2.1898 54.1161 1 52.9263 1 51.4603V3.6558C1 2.1898 2.1898 1 3.6558 1H67.3951C68.8611 1 70.0509 2.1898 70.0509 3.6558V51.4603Z" fill="#FCFCFC" stroke="#AAAAAA" stroke-width="1.5" stroke-miterlimit="10" stroke-linecap="round" stroke-linejoin="round"/>
<path d="M32.123 32.3579C32.123 30.647 32.3164 29.2993 32.7031 28.3149C33.0898 27.3188 33.7168 26.4575 34.584 25.731C35.4512 25.0044 36.1074 24.3423 36.5527 23.7446C37.0098 23.1353 37.2383 22.4673 37.2383 21.7407C37.2383 19.9712 36.4766 19.0864 34.9531 19.0864C34.25 19.0864 33.6816 19.3442 33.248 19.8599C32.8145 20.3755 32.5859 21.0728 32.5625 21.9517H26.6211C26.6445 19.6079 27.3828 17.7856 28.8359 16.4849C30.2891 15.1724 32.3281 14.5161 34.9531 14.5161C37.5664 14.5161 39.5879 15.1196 41.0176 16.3267C42.459 17.5337 43.1797 19.2505 43.1797 21.4771C43.1797 22.4497 42.9863 23.3345 42.5996 24.1313C42.2129 24.9282 41.5918 25.7427 40.7363 26.5747L38.7148 28.4556C38.1406 29.0063 37.7422 29.5747 37.5195 30.1606C37.2969 30.7349 37.1738 31.4673 37.1504 32.3579H32.123ZM31.4023 37.7017C31.4023 36.8345 31.7129 36.1255 32.334 35.5747C32.9668 35.0122 33.752 34.731 34.6895 34.731C35.627 34.731 36.4062 35.0122 37.0273 35.5747C37.6602 36.1255 37.9766 36.8345 37.9766 37.7017C37.9766 38.5688 37.6602 39.2837 37.0273 39.8462C36.4062 40.397 35.627 40.6724 34.6895 40.6724C33.752 40.6724 32.9668 40.397 32.334 39.8462C31.7129 39.2837 31.4023 38.5688 31.4023 37.7017Z" fill="#6EB4E0"/>
</svg>
