<svg viewBox="0 0 69 69" fill="none" xmlns="http://www.w3.org/2000/svg">
<path d="M49.1313 14.3897C48.5716 13.4911 47.4548 12.5141 45.0933 13.2707C42.5354 14.0902 43.079 16.4022 43.8283 18.8279C44.7606 21.8406 42.8241 25.1108 41.2992 28.4067C40.466 30.2083 41.4897 32.1416 42.9325 32.7183C44.504 33.3458 46.4388 33.0084 47.8672 30.853C49.2939 28.6959 53.3573 21.1882 49.1313 14.3897Z" fill="#6EB4E0"/>
<path d="M28.6821 40.2516C29.1851 39.4413 30.1903 38.5628 32.3157 39.2438C34.618 39.9805 34.1295 42.0621 33.4543 44.2452C32.616 46.9566 34.3581 49.8989 35.7306 52.8653C36.4805 54.4875 35.5599 56.2275 34.2605 56.7465C32.8469 57.3113 31.1048 57.0076 29.8191 55.067C28.535 53.1263 24.8785 46.3694 28.6821 40.2516Z" fill="#6EB4E0"/>
<path d="M23.8705 31.4039C25.3687 32.8062 25.3243 34.2751 24.0458 35.4402C22.9197 36.4655 20.9827 36.0112 19.5355 34.656C17.3269 32.586 14.5757 33.4707 11.6484 33.5511C10.0489 33.5951 9.02732 32.294 9.00098 31.1049C8.96476 29.5487 9.9312 28.5489 11.9867 28.1943C14.0431 27.8396 19.7438 27.5429 23.8705 31.4039Z" fill="#6EB4E0"/>
<path d="M44.9711 50.6064C43.2979 51.3591 41.959 50.9965 41.2139 49.8232C40.5585 48.7888 41.4727 47.5095 43.0888 46.782C45.5583 45.6729 45.4486 43.5112 46.124 41.4057C46.4932 40.2538 47.9507 39.819 49.0516 40.0676C50.4928 40.3922 51.1645 41.3059 50.9658 42.8528C50.7649 44.3991 49.5795 48.5322 44.9711 50.6064Z" fill="#6EB4E0"/>
<path d="M32.9775 21.616C33.1787 22.2363 33.3753 23.9119 31.9706 24.4731C30.4141 25.0948 29.8265 24.2415 28.9585 22.9883C27.5358 20.9342 25.7229 21.0949 23.6259 20.6072C22.4798 20.3402 22.2396 19.1214 22.335 18.1302C22.4308 17.1402 23.6104 16.2404 25.1552 16.341C26.6994 16.4412 31.3838 16.7168 32.9775 21.616Z" fill="#6EB4E0"/>
<path d="M34.385 67.77C52.823 67.77 67.77 52.823 67.77 34.385C67.77 15.947 52.823 1 34.385 1C15.947 1 1 15.947 1 34.385C1 52.823 15.947 67.77 34.385 67.77Z" stroke="#AAAAAA" stroke-width="1.5" stroke-miterlimit="10"/>
</svg>
