<svg viewBox="0 0 74 73" fill="none" xmlns="http://www.w3.org/2000/svg">
<path d="M18.0068 48.128C18.0068 48.128 25.438 55.437 37 50.5C48.562 45.563 54.7808 49.202 54.7808 49.202C54.7808 49.202 52.4398 56.747 40.4038 60.176C40.4038 60.176 38.7658 61.792 38.7658 64.792C38.7658 67.792 35.2388 68.835 34.5998 65.105C33.9608 61.375 34.7618 60.749 30.9508 59.312C27.1398 57.875 23.0838 57.215 18.0068 48.128Z" fill="#6EB4E0"/>
<path d="M6.93164 1.125C6.93164 1.125 6.92963 11.611 19.4906 16.524C19.4906 16.524 34.8426 2.744 54.3796 16.524C54.3796 16.524 63.8696 13.166 66.2406 2.145" stroke="#AAAAAA" stroke-width="1.5" stroke-miterlimit="10" stroke-linecap="round" stroke-linejoin="round"/>
<path d="M1 1C1.522 1 2.047 12.512 14.257 20.362C14.257 20.362 9.374 25.247 12.513 33.619C15.653 41.992 18.149 55.471 30.177 59.087C33.207 59.998 35.96 59.979 33.868 71.647" stroke="#AAAAAA" stroke-width="1.5" stroke-miterlimit="10" stroke-linecap="round" stroke-linejoin="round"/>
<path d="M72.3678 1C71.8448 1 71.3208 12.512 59.1098 20.362C59.1098 20.362 63.9938 25.247 60.8538 33.619C57.7148 41.992 55.2188 55.471 43.1898 59.087C40.1608 59.998 37.4068 59.979 39.4988 71.647" stroke="#AAAAAA" stroke-width="1.5" stroke-miterlimit="10" stroke-linecap="round" stroke-linejoin="round"/>
<path d="M19.671 22.2891C19.671 22.2891 16.525 22.1661 12.873 19.4221" stroke="#AAAAAA" stroke-width="1.5" stroke-miterlimit="10" stroke-linecap="round" stroke-linejoin="round"/>
<path d="M53.8066 22.091C53.8066 22.091 56.7226 22.229 60.8036 19.198" stroke="#AAAAAA" stroke-width="1.5" stroke-miterlimit="10" stroke-linecap="round" stroke-linejoin="round"/>
</svg>
