<svg viewBox="0 0 49 73" fill="none" xmlns="http://www.w3.org/2000/svg">
<path d="M16.3135 1C16.3135 1 9.29947 3.134 10.3785 10.008C11.2535 15.597 21.4075 14.205 21.4075 14.205" stroke="#AAAAAA" stroke-width="1.5" stroke-miterlimit="10" stroke-linecap="round" stroke-linejoin="round"/>
<path d="M16.2844 14.21C16.2844 14.21 -0.433666 20.085 1.09933 42C1.59933 49.126 6.95336 54.782 12.6974 57.886C19.8924 61.774 27.6964 62.153 27.3264 62.09" stroke="#AAAAAA" stroke-width="1.5" stroke-miterlimit="10" stroke-linecap="round" stroke-linejoin="round"/>
<path d="M19.9866 60.78C19.9866 60.78 19.5825 66.108 24.1845 71.588" stroke="#AAAAAA" stroke-width="1.5" stroke-miterlimit="10" stroke-linecap="round" stroke-linejoin="round"/>
<path d="M44.1271 1.82202C44.1271 1.82202 39.8181 16.798 42.2291 32.285C44.0551 50.475 52.9681 57.05 44.4941 71.149" stroke="#AAAAAA" stroke-width="1.5" stroke-miterlimit="10" stroke-linecap="round" stroke-linejoin="round"/>
<path d="M8 43C15.5 48.5 14.631 44 24.631 46C34.631 48 35.5 44 35.5 44C35.5 44 35.287 55.21 24.631 54.842C13.975 54.474 9.5 46 8 43Z" fill="#6EB4E0"/>
<path d="M24.9695 18.643C24.9695 18.643 11.4655 18.091 7.60146 33.928C3.73846 49.766 27.5445 64.994 35.2145 46.749C40.5845 28.12 31.5995 18.643 24.9695 18.643Z" stroke="#AAAAAA" stroke-width="1.5" stroke-miterlimit="10" stroke-linecap="round" stroke-linejoin="round"/>
</svg>
