<svg viewBox="0 0 100 100" fill="none" xmlns="http://www.w3.org/2000/svg">
<path d="M30.3418 46.0051C30.3418 46.0051 35 45.8749 42 47.4999C49 49.1249 47.335 47.3802 55.5 46.0052C58.616 45.4812 66.5 44 66.5 44C66.5 44 56.1178 56.1741 46.4728 55.8421C35.8168 55.4741 33.2858 48.0051 30.3418 46.0051Z" fill="#6EB4E0"/>
<path d="M39.147 11.6621C39.147 11.6621 40.468 22.0091 44.761 24.9811C44.761 24.9811 44.871 28.1731 43.109 31.4751C41.349 34.7771 40.578 36.3191 41.239 37.8591C41.59 38.6771 36.847 36.0321 32.129 36.2861C27.968 36.5111 23.826 39.2001 23.213 45.5371C21.795 60.1871 27.421 63.5981 41.151 63.5981C46.481 63.5981 57.484 62.7851 57.484 65.5981C57.484 68.2651 49.83 67.7991 44.88 68.0151C39.151 68.2651 42.651 76.1811 44.943 79.1401" stroke="#AAAAAA" stroke-width="1.5" stroke-miterlimit="10" stroke-linecap="round" stroke-linejoin="round"/>
<path d="M42.4493 11C42.4493 11 45.0913 17.606 46.9633 17.606C48.8343 17.606 54.8883 13.093 62.4843 16.616C70.0793 20.138 75.6093 45.41 53.2483 54.482C39.4023 60.099 31.8843 46.556 30.3433 46.005C29.6673 45.764 28.7793 49.068 28.7793 52.776C28.7793 58.974 34.9663 58.769 45.8823 58.769C59.9003 58.769 62.4903 62.662 62.4903 66.17C62.4903 68.553 61.9293 72.016 47.9853 72.016C44.2353 72.557 49.3603 77.766 49.3603 77.766" stroke="#AAAAAA" stroke-width="1.5" stroke-miterlimit="10" stroke-linecap="round" stroke-linejoin="round"/>
<path d="M40.2676 37.9651C40.2676 37.9651 42.9196 37.9651 45.1496 42.3491" stroke="#AAAAAA" stroke-width="1.5" stroke-miterlimit="10" stroke-linecap="round" stroke-linejoin="round"/>
<path d="M44.7617 24.981C44.7617 24.981 47.7877 21.019 50.8157 21.787" stroke="#AAAAAA" stroke-width="1.5" stroke-miterlimit="10" stroke-linecap="round" stroke-linejoin="round"/>
</svg>
