<svg viewBox="0 0 66 74" fill="none" xmlns="http://www.w3.org/2000/svg">
<path d="M58.8845 18.991C58.8225 15.889 58.6425 13.38 58.3235 12.056C48 12.056 43.8381 1.046 30.3515 1.00063C16.5995 0.954369 10 12.0561 1.58348 12.056C0.476479 16.673 1.05245 36.785 2.40745 45.177C4.89945 60.617 22.0295 72.741 29.5565 72.741H30.3515C37.8785 72.741 55.0085 60.617 57.5005 45.177C57.6685 44.137 57.8245 42.374 57.9675 41.056" stroke="#AAAAAA" stroke-width="1.5" stroke-miterlimit="10" stroke-linecap="round"/>
<path d="M37 32C39.2091 32 41 30.2091 41 28C41 25.7909 39.2091 24 37 24C34.7909 24 33 25.7909 33 28C33 30.2091 34.7909 32 37 32Z" fill="#6EB4E0"/>
<path d="M58.7354 36.4059C62.5805 36.4059 65.6974 33.2889 65.6974 29.4439C65.6974 25.5989 62.5805 22.4819 58.7354 22.4819C54.8904 22.4819 51.7734 25.5989 51.7734 29.4439C51.7734 33.2889 54.8904 36.4059 58.7354 36.4059Z" fill="#6EB4E0"/>
<path d="M46 47C48.7615 47 51 44.7614 51 42C51 39.2386 48.7615 37 46 37C43.2386 37 41 39.2386 41 42C41 44.7614 43.2386 47 46 47Z" fill="#6EB4E0"/>
</svg>
