<svg viewBox="0 0 67 75" fill="none" xmlns="http://www.w3.org/2000/svg">
<path d="M1 57.5C1 57.5 12.76 49.393 15.152 45.206C17.545 41.02 22.394 24.676 23.856 21.685C25.318 18.694 29.529 9.81298 31.989 5.32998C32.237 4.87798 33.291 3.61198 34.62 3.61198C35.949 3.61198 35.735 5.96498 35.542 6.58498C34.553 9.76198 31.381 15.514 30.489 18.663C30.394 18.997 30.25 20.585 31.761 19.226C33.023 18.093 41.812 3.95998 41.812 3.95998C41.812 3.95998 44.187 0.709977 45.783 1.02098C47.738 1.40098 47.378 3.21398 46.447 5.67198C45.515 8.12998 39.898 16.397 38.201 20.21C38.052 20.546 38.274 22.083 39.471 20.954C41.318 19.213 41.443 19.527 53.063 3.20998C53.063 3.20998 55.063 0.0219768 57.344 1.68598C59.772 3.45598 57.078 6.86898 57.078 6.86898C57.078 6.86898 47.781 19.255 45.184 24.077C44.982 24.452 45.084 26.047 46.812 24.585C48.539 23.124 60.612 10.471 62.284 9.13298C64.062 7.70998 67.062 10.335 65.136 12.748C62.397 16.179 46.081 36.923 45.438 38.897C44.799 40.857 46.094 44.782 51.233 43.611C55.188 42.71 59.489 35.489 62.11 34.562C64.001 33.893 65.618 34.584 65.251 36.435C64.509 40.173 59.065 46.32 56.081 48.728C52.577 51.555 42.61 55.9 40.188 56.459C37.552 57.068 29.905 57.1 28.375 58.161C26.846 59.224 13.957 73.908 13.957 73.908" stroke="#AAAAAA" stroke-width="1.5" stroke-miterlimit="10" stroke-linecap="round" stroke-linejoin="round"/>
<path d="M9.49992 66C11.4329 66 13 64.433 13 62.5C13 60.567 11.4329 59 9.49992 59C7.56689 59 6 60.567 6 62.5C6 64.433 7.56689 66 9.49992 66Z" fill="#6EB4E0"/>
<path d="M20 57C21.1045 57 22 56.1046 22 55C22 53.8954 21.1045 53 20 53C18.8954 53 18 53.8954 18 55C18 56.1046 18.8954 57 20 57Z" fill="#6EB4E0"/>
<path d="M21.5001 48C22.3285 48 23 47.3284 23 46.5C23 45.6716 22.3285 45 21.5001 45C20.6716 45 20 45.6716 20 46.5C20 47.3284 20.6716 48 21.5001 48Z" fill="#6EB4E0"/>
<path d="M29.9999 50C31.1045 50 32 49.1046 32 48C32 46.8954 31.1045 46 29.9999 46C28.8954 46 28 46.8954 28 48C28 49.1046 28.8954 50 29.9999 50Z" fill="#6EB4E0"/>
<path d="M27.5 41C28.3285 41 29 40.3284 29 39.5C29 38.6716 28.3285 38 27.5 38C26.6716 38 26 38.6716 26 39.5C26 40.3284 26.6716 41 27.5 41Z" fill="#6EB4E0"/>
</svg>
