<svg viewBox="0 0 75 49" fill="none" xmlns="http://www.w3.org/2000/svg">
<path d="M35.2334 10.5915L21.8414 34.2765L6.53838 25.0255C6.53838 25.0255 -3.93862 18.6785 3.92738 6.96248C10.8824 -3.39552 21.4414 2.88848 21.4414 2.88848L35.2334 10.5915Z" stroke="#AAAAAA" stroke-width="1.5" stroke-miterlimit="10" stroke-linecap="round" stroke-linejoin="round"/>
<path d="M39.834 10.5915L53.226 34.2765L68.529 25.0255C68.529 25.0255 79.007 18.6785 71.14 6.96248C64.185 -3.39552 53.626 2.88848 53.626 2.88848L39.834 10.5915Z" stroke="#AAAAAA" stroke-width="1.5" stroke-miterlimit="10" stroke-linecap="round" stroke-linejoin="round"/>
<path d="M37.5 46C39.433 46 41 44.433 41 42.5C41 40.567 39.433 39 37.5 39C35.567 39 34 40.567 34 42.5C34 44.433 35.567 46 37.5 46Z" fill="#6EB4E0"/>
<path d="M44 35.0011C44 36.1042 43.1047 37 42 37C40.8953 37 40 36.1042 40 35.0011C40 33.8925 40.8953 33 42 33C43.1047 33 44 33.8936 44 35.0011Z" fill="#6EB4E0"/>
<path d="M46.5 49C47.8807 49 49 47.8807 49 46.5C49 45.1193 47.8807 44 46.5 44C45.1193 44 44 45.1193 44 46.5C44 47.8807 45.1193 49 46.5 49Z" fill="#6EB4E0"/>
<path d="M33.5 34C35.433 34 37 32.433 37 30.5C37 28.567 35.433 27 33.5 27C31.567 27 30 28.567 30 30.5C30 32.433 31.567 34 33.5 34Z" fill="#6EB4E0"/>
</svg>
