<svg viewBox="0 0 1225 479" fill="none" xmlns="http://www.w3.org/2000/svg">
<rect x="64" width="225" height="479" fill="url(#paint0_linear)"/>
<rect x="532" width="225" height="479" fill="url(#paint1_linear)"/>
<rect x="1000" width="225" height="479" fill="url(#paint2_linear)"/>
<rect x="298" width="225" height="479" fill="url(#paint3_linear)"/>
<rect x="766" width="225" height="479" fill="url(#paint4_linear)"/>
<circle opacity="0.15" cx="176.5" cy="83.5" r="5.5" fill="#92278F"/>
<circle cx="176.5" cy="83.5" r="2.5" fill="#92278F"/>
<circle opacity="0.15" cx="644.5" cy="293.5" r="5.5" fill="#005350"/>
<circle cx="644.5" cy="293.5" r="2.5" fill="#005350"/>
<circle opacity="0.15" cx="409.5" cy="159.5" r="5.5" fill="#005350"/>
<circle cx="409.5" cy="159.5" r="2.5" fill="#005350"/>
<circle opacity="0.15" cx="176.5" cy="103.5" r="5.5" fill="#005350"/>
<circle cx="176.5" cy="103.5" r="2.5" fill="#005350"/>
<circle opacity="0.15" cx="1112.5" cy="293.5" r="5.5" fill="#005350"/>
<circle cx="1112.5" cy="293.5" r="2.5" fill="#005350"/>
<circle opacity="0.15" cx="878.5" cy="225.5" r="5.5" fill="#005350"/>
<circle cx="878.5" cy="225.5" r="2.5" fill="#005350"/>
<circle opacity="0.15" cx="1112.5" cy="83.5" r="5.5" fill="#92278F"/>
<circle cx="1112.5" cy="83.5" r="2.5" fill="#92278F"/>
<path d="M0.408 87.695H3.621V99H2.822V88.443H0.408V87.695ZM10.6149 99.187C9.31157 99.187 8.28024 98.6657 7.52091 97.623C6.76157 96.569 6.38191 95.141 6.38191 93.339C6.38191 91.5483 6.76157 90.1317 7.52091 89.089C8.28024 88.035 9.31157 87.508 10.6149 87.508C11.9182 87.508 12.9496 88.035 13.7089 89.089C14.4682 90.1317 14.8479 91.5483 14.8479 93.339C14.8479 95.141 14.4682 96.569 13.7089 97.623C12.9496 98.6657 11.9182 99.187 10.6149 99.187ZM10.6149 98.405C11.6689 98.405 12.5019 97.9573 13.1139 97.062C13.7259 96.1553 14.0319 94.92 14.0319 93.356C14.0319 91.7807 13.7259 90.5453 13.1139 89.65C12.5019 88.7433 11.6689 88.29 10.6149 88.29C9.56091 88.29 8.72791 88.7433 8.11591 89.65C7.50391 90.5453 7.19791 91.775 7.19791 93.339C7.19791 94.3817 7.33391 95.2883 7.60591 96.059C7.87791 96.8183 8.26891 97.402 8.77891 97.81C9.30024 98.2067 9.91224 98.405 10.6149 98.405ZM21.0905 99.187C19.7872 99.187 18.7558 98.6657 17.9965 97.623C17.2372 96.569 16.8575 95.141 16.8575 93.339C16.8575 91.5483 17.2372 90.1317 17.9965 89.089C18.7558 88.035 19.7872 87.508 21.0905 87.508C22.3938 87.508 23.4252 88.035 24.1845 89.089C24.9438 90.1317 25.3235 91.5483 25.3235 93.339C25.3235 95.141 24.9438 96.569 24.1845 97.623C23.4252 98.6657 22.3938 99.187 21.0905 99.187ZM21.0905 98.405C22.1445 98.405 22.9775 97.9573 23.5895 97.062C24.2015 96.1553 24.5075 94.92 24.5075 93.356C24.5075 91.7807 24.2015 90.5453 23.5895 89.65C22.9775 88.7433 22.1445 88.29 21.0905 88.29C20.0365 88.29 19.2035 88.7433 18.5915 89.65C17.9795 90.5453 17.6735 91.775 17.6735 93.339C17.6735 94.3817 17.8095 95.2883 18.0815 96.059C18.3535 96.8183 18.7445 97.402 19.2545 97.81C19.7758 98.2067 20.3878 98.405 21.0905 98.405ZM34.1567 92.03C33.3974 92.03 32.7741 91.792 32.2867 91.316C31.8107 90.8287 31.5727 90.2053 31.5727 89.446C31.5727 88.698 31.8107 88.086 32.2867 87.61C32.7741 87.1227 33.3974 86.879 34.1567 86.879C34.5421 86.879 34.8934 86.9413 35.2107 87.066C35.5281 87.1907 35.8001 87.3663 36.0267 87.593C36.2534 87.8197 36.4291 88.0917 36.5537 88.409C36.6897 88.7263 36.7577 89.072 36.7577 89.446C36.7577 90.2053 36.5141 90.8287 36.0267 91.316C35.5394 91.792 34.9161 92.03 34.1567 92.03ZM33.4767 99.068L40.7017 87.083H41.6027L34.3777 99.068H33.4767ZM34.1567 91.35C34.5194 91.35 34.8424 91.2707 35.1257 91.112C35.4204 90.942 35.6471 90.7153 35.8057 90.432C35.9644 90.1373 36.0437 89.8087 36.0437 89.446C36.0437 89.174 35.9984 88.9247 35.9077 88.698C35.8171 88.46 35.6867 88.2617 35.5167 88.103C35.3581 87.933 35.1597 87.8027 34.9217 87.712C34.6837 87.6213 34.4287 87.576 34.1567 87.576C33.6127 87.576 33.1651 87.7517 32.8137 88.103C32.4624 88.4543 32.2867 88.902 32.2867 89.446C32.2867 90.0013 32.4624 90.4603 32.8137 90.823C33.1651 91.1743 33.6127 91.35 34.1567 91.35ZM43.0137 98.388C42.5377 98.864 41.9201 99.102 41.1607 99.102C40.4127 99.102 39.7951 98.864 39.3077 98.388C38.8317 97.912 38.5937 97.3 38.5937 96.552C38.5937 96.0647 38.7014 95.6283 38.9167 95.243C39.1321 94.8463 39.4324 94.5403 39.8177 94.325C40.2144 94.1097 40.6621 94.002 41.1607 94.002C41.9201 94.002 42.5377 94.24 43.0137 94.716C43.5011 95.192 43.7447 95.804 43.7447 96.552C43.7447 97.3 43.5011 97.912 43.0137 98.388ZM39.8177 97.895C40.1691 98.235 40.6167 98.405 41.1607 98.405C41.7047 98.405 42.1524 98.235 42.5037 97.895C42.8551 97.5437 43.0307 97.096 43.0307 96.552C43.0307 96.008 42.8551 95.566 42.5037 95.226C42.1524 94.8747 41.7047 94.699 41.1607 94.699C40.6167 94.699 40.1691 94.8747 39.8177 95.226C39.4777 95.566 39.3077 96.008 39.3077 96.552C39.3077 97.096 39.4777 97.5437 39.8177 97.895ZM0.425 152.678H7.803V152.882L3.281 164H2.397L6.732 153.443H0.425V152.678ZM13.2546 164.187C11.9512 164.187 10.9199 163.666 10.1606 162.623C9.40122 161.569 9.02155 160.141 9.02155 158.339C9.02155 156.548 9.40122 155.132 10.1606 154.089C10.9199 153.035 11.9512 152.508 13.2546 152.508C14.5579 152.508 15.5892 153.035 16.3486 154.089C17.1079 155.132 17.4876 156.548 17.4876 158.339C17.4876 160.141 17.1079 161.569 16.3486 162.623C15.5892 163.666 14.5579 164.187 13.2546 164.187ZM13.2546 163.405C14.3086 163.405 15.1416 162.957 15.7536 162.062C16.3656 161.155 16.6716 159.92 16.6716 158.356C16.6716 156.781 16.3656 155.545 15.7536 154.65C15.1416 153.743 14.3086 153.29 13.2546 153.29C12.2006 153.29 11.3676 153.743 10.7556 154.65C10.1436 155.545 9.83755 156.775 9.83755 158.339C9.83755 159.382 9.97355 160.288 10.2456 161.059C10.5176 161.818 10.9086 162.402 11.4186 162.81C11.9399 163.207 12.5519 163.405 13.2546 163.405ZM26.3208 157.03C25.5614 157.03 24.9381 156.792 24.4508 156.316C23.9748 155.829 23.7368 155.205 23.7368 154.446C23.7368 153.698 23.9748 153.086 24.4508 152.61C24.9381 152.123 25.5614 151.879 26.3208 151.879C26.7061 151.879 27.0574 151.941 27.3748 152.066C27.6921 152.191 27.9641 152.366 28.1908 152.593C28.4174 152.82 28.5931 153.092 28.7178 153.409C28.8538 153.726 28.9218 154.072 28.9218 154.446C28.9218 155.205 28.6781 155.829 28.1908 156.316C27.7034 156.792 27.0801 157.03 26.3208 157.03ZM25.6408 164.068L32.8658 152.083H33.7668L26.5418 164.068H25.6408ZM26.3208 156.35C26.6834 156.35 27.0064 156.271 27.2898 156.112C27.5844 155.942 27.8111 155.715 27.9698 155.432C28.1284 155.137 28.2078 154.809 28.2078 154.446C28.2078 154.174 28.1624 153.925 28.0718 153.698C27.9811 153.46 27.8508 153.262 27.6808 153.103C27.5221 152.933 27.3238 152.803 27.0858 152.712C26.8478 152.621 26.5928 152.576 26.3208 152.576C25.7768 152.576 25.3291 152.752 24.9778 153.103C24.6264 153.454 24.4508 153.902 24.4508 154.446C24.4508 155.001 24.6264 155.46 24.9778 155.823C25.3291 156.174 25.7768 156.35 26.3208 156.35ZM35.1778 163.388C34.7018 163.864 34.0841 164.102 33.3248 164.102C32.5768 164.102 31.9591 163.864 31.4718 163.388C30.9958 162.912 30.7578 162.3 30.7578 161.552C30.7578 161.065 30.8654 160.628 31.0808 160.243C31.2961 159.846 31.5964 159.54 31.9818 159.325C32.3784 159.11 32.8261 159.002 33.3248 159.002C34.0841 159.002 34.7018 159.24 35.1778 159.716C35.6651 160.192 35.9088 160.804 35.9088 161.552C35.9088 162.3 35.6651 162.912 35.1778 163.388ZM31.9818 162.895C32.3331 163.235 32.7808 163.405 33.3248 163.405C33.8688 163.405 34.3164 163.235 34.6678 162.895C35.0191 162.544 35.1948 162.096 35.1948 161.552C35.1948 161.008 35.0191 160.566 34.6678 160.226C34.3164 159.875 33.8688 159.699 33.3248 159.699C32.7808 159.699 32.3331 159.875 31.9818 160.226C31.6418 160.566 31.4718 161.008 31.4718 161.552C31.4718 162.096 31.6418 162.544 31.9818 162.895ZM4.216 222.013C5.31533 222.013 6.222 222.359 6.936 223.05C7.65 223.73 8.007 224.574 8.007 225.583C8.007 226.614 7.65567 227.476 6.953 228.167C6.26167 228.847 5.406 229.187 4.386 229.187C3.37733 229.187 2.533 228.875 1.853 228.252C1.173 227.617 0.804667 226.813 0.748 225.838H1.547C1.60367 226.597 1.89267 227.215 2.414 227.691C2.94667 228.167 3.604 228.405 4.386 228.405C5.19067 228.405 5.85933 228.139 6.392 227.606C6.92467 227.062 7.191 226.388 7.191 225.583C7.191 224.778 6.902 224.104 6.324 223.56C5.75733 223.016 5.049 222.744 4.199 222.744H1.479L1.326 222.574L1.853 217.678H7.259V218.443H2.533L2.142 222.013H4.216ZM14.0016 229.187C12.6983 229.187 11.667 228.666 10.9076 227.623C10.1483 226.569 9.76863 225.141 9.76863 223.339C9.76863 221.548 10.1483 220.132 10.9076 219.089C11.667 218.035 12.6983 217.508 14.0016 217.508C15.305 217.508 16.3363 218.035 17.0956 219.089C17.855 220.132 18.2346 221.548 18.2346 223.339C18.2346 225.141 17.855 226.569 17.0956 227.623C16.3363 228.666 15.305 229.187 14.0016 229.187ZM14.0016 228.405C15.0556 228.405 15.8886 227.957 16.5006 227.062C17.1126 226.155 17.4186 224.92 17.4186 223.356C17.4186 221.781 17.1126 220.545 16.5006 219.65C15.8886 218.743 15.0556 218.29 14.0016 218.29C12.9476 218.29 12.1146 218.743 11.5026 219.65C10.8906 220.545 10.5846 221.775 10.5846 223.339C10.5846 224.382 10.7206 225.288 10.9926 226.059C11.2646 226.818 11.6556 227.402 12.1656 227.81C12.687 228.207 13.299 228.405 14.0016 228.405ZM27.0679 222.03C26.3085 222.03 25.6852 221.792 25.1979 221.316C24.7219 220.829 24.4839 220.205 24.4839 219.446C24.4839 218.698 24.7219 218.086 25.1979 217.61C25.6852 217.123 26.3085 216.879 27.0679 216.879C27.4532 216.879 27.8045 216.941 28.1219 217.066C28.4392 217.191 28.7112 217.366 28.9379 217.593C29.1645 217.82 29.3402 218.092 29.4649 218.409C29.6009 218.726 29.6689 219.072 29.6689 219.446C29.6689 220.205 29.4252 220.829 28.9379 221.316C28.4505 221.792 27.8272 222.03 27.0679 222.03ZM26.3879 229.068L33.6129 217.083H34.5139L27.2889 229.068H26.3879ZM27.0679 221.35C27.4305 221.35 27.7535 221.271 28.0369 221.112C28.3315 220.942 28.5582 220.715 28.7169 220.432C28.8755 220.137 28.9549 219.809 28.9549 219.446C28.9549 219.174 28.9095 218.925 28.8189 218.698C28.7282 218.46 28.5979 218.262 28.4279 218.103C28.2692 217.933 28.0709 217.803 27.8329 217.712C27.5949 217.621 27.3399 217.576 27.0679 217.576C26.5239 217.576 26.0762 217.752 25.7249 218.103C25.3735 218.454 25.1979 218.902 25.1979 219.446C25.1979 220.001 25.3735 220.46 25.7249 220.823C26.0762 221.174 26.5239 221.35 27.0679 221.35ZM35.9249 228.388C35.4489 228.864 34.8312 229.102 34.0719 229.102C33.3239 229.102 32.7062 228.864 32.2189 228.388C31.7429 227.912 31.5049 227.3 31.5049 226.552C31.5049 226.065 31.6125 225.628 31.8279 225.243C32.0432 224.846 32.3435 224.54 32.7289 224.325C33.1255 224.11 33.5732 224.002 34.0719 224.002C34.8312 224.002 35.4489 224.24 35.9249 224.716C36.4122 225.192 36.6559 225.804 36.6559 226.552C36.6559 227.3 36.4122 227.912 35.9249 228.388ZM32.7289 227.895C33.0802 228.235 33.5279 228.405 34.0719 228.405C34.6159 228.405 35.0635 228.235 35.4149 227.895C35.7662 227.544 35.9419 227.096 35.9419 226.552C35.9419 226.008 35.7662 225.566 35.4149 225.226C35.0635 224.875 34.6159 224.699 34.0719 224.699C33.5279 224.699 33.0802 224.875 32.7289 225.226C32.3889 225.566 32.2189 226.008 32.2189 226.552C32.2189 227.096 32.3889 227.544 32.7289 227.895ZM2.193 293.218H8.058V294H0.646V293.66C2.482 291.801 3.81933 290.39 4.658 289.427C5.49667 288.464 6.04067 287.727 6.29 287.217C6.55067 286.707 6.681 286.169 6.681 285.602C6.681 284.911 6.46 284.355 6.018 283.936C5.576 283.505 4.98667 283.29 4.25 283.29C3.51333 283.29 2.91267 283.505 2.448 283.936C1.98333 284.367 1.751 284.922 1.751 285.602V285.908H0.935V285.602C0.935 284.99 1.07667 284.452 1.36 283.987C1.64333 283.511 2.03433 283.148 2.533 282.899C3.043 282.638 3.61533 282.508 4.25 282.508C5.21333 282.508 5.99533 282.797 6.596 283.375C7.19667 283.942 7.497 284.684 7.497 285.602C7.497 286.203 7.378 286.764 7.14 287.285C6.91333 287.806 6.42033 288.526 5.661 289.444C4.913 290.351 3.757 291.609 2.193 293.218ZM12.9152 287.013C14.0146 287.013 14.9212 287.359 15.6352 288.05C16.3492 288.73 16.7062 289.574 16.7062 290.583C16.7062 291.614 16.3549 292.476 15.6522 293.167C14.9609 293.847 14.1052 294.187 13.0852 294.187C12.0766 294.187 11.2322 293.875 10.5522 293.252C9.87222 292.617 9.50389 291.813 9.44722 290.838H10.2462C10.3029 291.597 10.5919 292.215 11.1132 292.691C11.6459 293.167 12.3032 293.405 13.0852 293.405C13.8899 293.405 14.5586 293.139 15.0912 292.606C15.6239 292.062 15.8902 291.388 15.8902 290.583C15.8902 289.778 15.6012 289.104 15.0232 288.56C14.4566 288.016 13.7482 287.744 12.8982 287.744H10.1782L10.0252 287.574L10.5522 282.678H15.9582V283.443H11.2322L10.8412 287.013H12.9152ZM25.2915 287.03C24.5322 287.03 23.9088 286.792 23.4215 286.316C22.9455 285.829 22.7075 285.205 22.7075 284.446C22.7075 283.698 22.9455 283.086 23.4215 282.61C23.9088 282.123 24.5322 281.879 25.2915 281.879C25.6768 281.879 26.0282 281.941 26.3455 282.066C26.6628 282.191 26.9348 282.366 27.1615 282.593C27.3882 282.82 27.5638 283.092 27.6885 283.409C27.8245 283.726 27.8925 284.072 27.8925 284.446C27.8925 285.205 27.6488 285.829 27.1615 286.316C26.6742 286.792 26.0508 287.03 25.2915 287.03ZM24.6115 294.068L31.8365 282.083H32.7375L25.5125 294.068H24.6115ZM25.2915 286.35C25.6542 286.35 25.9772 286.271 26.2605 286.112C26.5552 285.942 26.7818 285.715 26.9405 285.432C27.0992 285.137 27.1785 284.809 27.1785 284.446C27.1785 284.174 27.1332 283.925 27.0425 283.698C26.9518 283.46 26.8215 283.262 26.6515 283.103C26.4928 282.933 26.2945 282.803 26.0565 282.712C25.8185 282.621 25.5635 282.576 25.2915 282.576C24.7475 282.576 24.2998 282.752 23.9485 283.103C23.5972 283.454 23.4215 283.902 23.4215 284.446C23.4215 285.001 23.5972 285.46 23.9485 285.823C24.2998 286.174 24.7475 286.35 25.2915 286.35ZM34.1485 293.388C33.6725 293.864 33.0548 294.102 32.2955 294.102C31.5475 294.102 30.9298 293.864 30.4425 293.388C29.9665 292.912 29.7285 292.3 29.7285 291.552C29.7285 291.065 29.8362 290.628 30.0515 290.243C30.2668 289.846 30.5672 289.54 30.9525 289.325C31.3492 289.11 31.7968 289.002 32.2955 289.002C33.0548 289.002 33.6725 289.24 34.1485 289.716C34.6358 290.192 34.8795 290.804 34.8795 291.552C34.8795 292.3 34.6358 292.912 34.1485 293.388ZM30.9525 292.895C31.3038 293.235 31.7515 293.405 32.2955 293.405C32.8395 293.405 33.2872 293.235 33.6385 292.895C33.9898 292.544 34.1655 292.096 34.1655 291.552C34.1655 291.008 33.9898 290.566 33.6385 290.226C33.2872 289.875 32.8395 289.699 32.2955 289.699C31.7515 289.699 31.3038 289.875 30.9525 290.226C30.6125 290.566 30.4425 291.008 30.4425 291.552C30.4425 292.096 30.6125 292.544 30.9525 292.895ZM5.236 359.187C3.93267 359.187 2.90133 358.666 2.142 357.623C1.38267 356.569 1.003 355.141 1.003 353.339C1.003 351.548 1.38267 350.132 2.142 349.089C2.90133 348.035 3.93267 347.508 5.236 347.508C6.53933 347.508 7.57067 348.035 8.33 349.089C9.08933 350.132 9.469 351.548 9.469 353.339C9.469 355.141 9.08933 356.569 8.33 357.623C7.57067 358.666 6.53933 359.187 5.236 359.187ZM5.236 358.405C6.29 358.405 7.123 357.957 7.735 357.062C8.347 356.155 8.653 354.92 8.653 353.356C8.653 351.781 8.347 350.545 7.735 349.65C7.123 348.743 6.29 348.29 5.236 348.29C4.182 348.29 3.349 348.743 2.737 349.65C2.125 350.545 1.819 351.775 1.819 353.339C1.819 354.382 1.955 355.288 2.227 356.059C2.499 356.818 2.89 357.402 3.4 357.81C3.92133 358.207 4.53333 358.405 5.236 358.405Z" fill="#535353"/>
<path d="M650.984 395.617C650.984 395.617 650.432 394.019 649.044 394.226C649.044 394.226 647.009 394.031 646.422 393.769C645.57 393.392 643.289 391.668 643.289 391.668C643.289 391.668 641.088 391.668 640.757 393.451C640.757 393.451 641.258 394.225 640.703 396.696C640.294 398.512 638.819 399.405 638.819 399.405C639.291 399.918 640.325 399.402 642.155 401.412C643.29 402.657 643.29 403.924 643.29 403.924C643.585 405.393 642.684 406.405 642.684 406.405C646.738 410.479 652.453 406.836 652.453 406.836C652.453 406.836 653.616 407.205 656.112 407.168C658.905 407.125 660.809 405.755 661.464 403.926C661.679 403.328 661.886 401.959 661.886 401.959C661.886 401.959 664.614 401.605 665.949 399.406C668.229 395.652 666.415 389.879 662.56 388.886C658.705 387.893 657.928 391.024 657.928 391.024C657.928 391.024 653.254 391.506 653.187 395.13C653.187 395.13 648.974 395.234 649.198 398.225C649.473 401.869 646.873 403.509 646.873 403.509" stroke="#AAAAAA" stroke-width="1.2" stroke-miterlimit="10" stroke-linecap="round" stroke-linejoin="round"/>
<path d="M645.229 396.05C643.491 397.088 641.741 398.812 641.741 400.988" stroke="#AAAAAA" stroke-width="1.2" stroke-miterlimit="10" stroke-linecap="round" stroke-linejoin="round"/>
<path d="M652.452 406.834C652.452 406.834 654.515 404.432 652.876 400.498" stroke="#AAAAAA" stroke-width="1.2" stroke-miterlimit="10" stroke-linecap="round" stroke-linejoin="round"/>
<path d="M653.186 395.128C653.186 395.128 657.927 396.303 656.953 403.666" stroke="#AAAAAA" stroke-width="1.2" stroke-miterlimit="10" stroke-linecap="round" stroke-linejoin="round"/>
<path d="M661.253 404.433C661.253 404.433 663.403 401.179 659.77 397.459" stroke="#AAAAAA" stroke-width="1.2" stroke-miterlimit="10" stroke-linecap="round" stroke-linejoin="round"/>
<path d="M657.927 391.022C657.927 391.022 661.295 390.284 663.157 396.05" stroke="#AAAAAA" stroke-width="1.2" stroke-miterlimit="10" stroke-linecap="round" stroke-linejoin="round"/>
<path d="M653.673 352.761C653.673 352.761 647.646 353.91 644.101 351.79C640.555 349.671 634.263 348.922 631.116 352.432C627.97 355.941 627.172 361.947 630.673 366.408C634.173 370.867 638.206 370.204 640.245 370.116C642.283 370.028 647.512 369.101 648.532 370.201C648.897 370.595 650.069 375.093 652.254 377.447C654.44 379.8 657.639 380.009 658.991 378.418C661.693 375.239 664.308 377.976 665.062 377.359C665.815 376.74 666.125 363.581 653.539 361.505C640.955 359.431 637.931 365.137 637.232 360.358C636.612 356.118 645.43 360.402 650.925 359.077C656.421 357.752 655.49 357.884 655.49 357.884" fill="#E7B56E"/>
<path d="M653.673 352.761C653.673 352.761 647.646 353.91 644.101 351.79C640.555 349.671 634.263 348.922 631.116 352.432C627.97 355.941 627.172 361.947 630.673 366.408C634.173 370.867 638.206 370.204 640.245 370.116C642.283 370.028 647.512 369.101 648.532 370.201C648.897 370.595 650.069 375.093 652.254 377.447C654.44 379.8 657.639 380.009 658.991 378.418C661.693 375.239 664.308 377.976 665.062 377.359C665.815 376.74 666.125 363.581 653.539 361.505C640.955 359.431 637.931 365.137 637.232 360.358C636.612 356.118 645.43 360.402 650.925 359.077C656.421 357.752 655.49 357.884 655.49 357.884" stroke="#AAAAAA" stroke-width="1.2" stroke-miterlimit="10" stroke-linecap="round" stroke-linejoin="round"/>
<path d="M647.951 369.872C647.951 369.872 654.693 366.937 656.953 372.899L647.951 369.872Z" fill="#E7B56E"/>
<path d="M647.951 369.872C647.951 369.872 654.693 366.937 656.953 372.899" stroke="#AAAAAA" stroke-width="1.2" stroke-miterlimit="10" stroke-linecap="round" stroke-linejoin="round"/>
<path d="M629.013 363.409C629.013 363.409 624.559 364.906 624.426 368.792C624.294 372.678 623.575 372.361 621.767 374.489C617.391 379.644 622.521 382.968 622.521 382.968C622.521 382.968 620.316 387.097 624.071 388.885C624.071 388.885 620.182 393.555 624.931 395.774C624.931 395.774 622.409 399.583 625.932 402.199C625.932 402.199 621.025 407.583 626.198 409.618C630.07 411.142 632.015 409.32 629.013 405.975C629.013 405.975 630.187 407.564 633.576 408.094C636.966 408.625 641.054 408.89 642.683 406.405C643.96 404.458 643.547 400.212 638.229 399.882C638.229 399.882 643.947 396.04 638.961 390.476C638.961 390.476 642.185 389.846 641.916 386.214C641.691 383.169 639.493 383.057 639.493 383.057C639.493 383.057 641.62 378.818 637.898 376.765C637.898 376.765 640.379 374.357 637.898 370.472C637.898 370.469 631.516 369.847 629.013 363.409Z" stroke="#AAAAAA" stroke-width="1.2" stroke-miterlimit="10" stroke-linecap="round" stroke-linejoin="round"/>
<path d="M628.382 370.205C628.382 370.205 632.414 372.49 632.712 376.047" stroke="#AAAAAA" stroke-width="1.2" stroke-miterlimit="10" stroke-linecap="round" stroke-linejoin="round"/>
<path d="M627.527 372.899C627.527 372.899 630.07 377.359 637.897 376.762" stroke="#AAAAAA" stroke-width="1.2" stroke-miterlimit="10" stroke-linecap="round" stroke-linejoin="round"/>
<path d="M622.521 382.967C622.521 382.967 623.34 380.206 635.372 381.862" stroke="#AAAAAA" stroke-width="1.2" stroke-miterlimit="10" stroke-linecap="round" stroke-linejoin="round"/>
<path d="M626.73 384.579C626.73 384.579 635.904 389.68 639.493 383.055" stroke="#AAAAAA" stroke-width="1.2" stroke-miterlimit="10" stroke-linecap="round" stroke-linejoin="round"/>
<path d="M624.071 388.884C624.071 388.884 628.946 392.328 638.961 390.474" stroke="#AAAAAA" stroke-width="1.2" stroke-miterlimit="10" stroke-linecap="round" stroke-linejoin="round"/>
<path d="M624.769 396.05C624.769 396.05 626.198 393.124 635.371 394.647" stroke="#AAAAAA" stroke-width="1.2" stroke-miterlimit="10" stroke-linecap="round" stroke-linejoin="round"/>
<path d="M638.818 399.404C634.396 404.075 625.932 402.198 625.932 402.198" stroke="#AAAAAA" stroke-width="1.2" stroke-miterlimit="10" stroke-linecap="round" stroke-linejoin="round"/>
<path d="M632.351 402.407C632.351 402.407 634.507 403.787 638.662 403.455" stroke="#AAAAAA" stroke-width="1.2" stroke-miterlimit="10" stroke-linecap="round" stroke-linejoin="round"/>
<path d="M665.062 377.359C665.063 377.359 666.198 378.569 666.613 380.274C666.862 381.296 666.807 383.551 666.807 383.551C666.807 383.551 668.163 387.56 663.689 388.69C663.689 388.69 658.283 389.37 658.548 385.661C658.548 385.661 657.152 390.644 653.33 391.022C653.33 391.022 652.451 394.536 648.533 394.207C645.187 393.926 642.946 392.196 642.017 387.515C641.088 382.835 643.924 382.151 643.924 382.151C643.924 382.151 641.079 382.064 640.422 380.627C640.422 380.627 638.783 376.686 641.619 374.858C641.619 374.858 640.178 372.372 641.33 370.031C641.33 370.031 646.304 369.181 648.635 369.964C648.635 369.964 650.013 374.283 651.73 376.817C652.115 377.385 654.215 378.9 654.215 378.9C654.215 378.9 656.953 380.274 659.418 377.965C661.424 376.087 663.045 376.973 665.062 377.359Z" stroke="#AAAAAA" stroke-width="1.2" stroke-miterlimit="10" stroke-linecap="round" stroke-linejoin="round"/>
<path d="M649.472 373.125C649.472 373.125 645.231 371.574 640.991 375.364" stroke="#AAAAAA" stroke-width="1.2" stroke-miterlimit="10" stroke-linecap="round" stroke-linejoin="round"/>
<path d="M643.924 382.151C643.924 382.151 647.752 383.156 649.471 382.288C649.471 382.288 648.71 384.07 649.471 385.396" stroke="#AAAAAA" stroke-width="1.2" stroke-miterlimit="10" stroke-linecap="round" stroke-linejoin="round"/>
<path d="M644.81 378.683C644.81 378.683 646.958 375.97 651.202 376.046" stroke="#AAAAAA" stroke-width="1.2" stroke-miterlimit="10" stroke-linecap="round" stroke-linejoin="round"/>
<path d="M649.472 382.288C649.472 382.288 650.343 380.803 652.452 380.273" stroke="#AAAAAA" stroke-width="1.2" stroke-miterlimit="10" stroke-linecap="round" stroke-linejoin="round"/>
<path d="M646.698 386.785C646.698 386.785 646.96 390.996 653.33 391.022" stroke="#AAAAAA" stroke-width="1.2" stroke-miterlimit="10" stroke-linecap="round" stroke-linejoin="round"/>
<path d="M662.447 383.773C662.447 383.773 665.35 382.769 666.778 383.773" stroke="#AAAAAA" stroke-width="1.2" stroke-miterlimit="10" stroke-linecap="round" stroke-linejoin="round"/>
<path d="M885.984 395.617C885.984 395.617 885.431 394.019 884.044 394.226C884.044 394.226 882.009 394.031 881.421 393.769C880.57 393.392 878.289 391.668 878.289 391.668C878.289 391.668 876.087 391.668 875.757 393.451C875.757 393.451 876.258 394.225 875.702 396.696C875.293 398.512 873.818 399.405 873.818 399.405C874.29 399.918 875.324 399.402 877.154 401.412C878.29 402.657 878.29 403.924 878.29 403.924C878.584 405.393 877.684 406.405 877.684 406.405C881.738 410.479 887.452 406.836 887.452 406.836C887.452 406.836 888.616 407.205 891.112 407.168C893.905 407.125 895.809 405.755 896.464 403.926C896.679 403.328 896.886 401.959 896.886 401.959C896.886 401.959 899.614 401.606 900.949 399.406C903.229 395.652 901.415 389.879 897.56 388.886C893.705 387.893 892.928 391.024 892.928 391.024C892.928 391.024 888.253 391.506 888.187 395.13C888.187 395.13 883.973 395.234 884.198 398.225C884.473 401.869 881.872 403.509 881.872 403.509" fill="#8FDB8F"/>
<path d="M885.984 395.617C885.984 395.617 885.431 394.019 884.044 394.226C884.044 394.226 882.009 394.031 881.421 393.769C880.57 393.392 878.289 391.668 878.289 391.668C878.289 391.668 876.087 391.668 875.757 393.451C875.757 393.451 876.258 394.225 875.702 396.696C875.293 398.512 873.818 399.405 873.818 399.405C874.29 399.918 875.324 399.402 877.154 401.412C878.29 402.657 878.29 403.924 878.29 403.924C878.584 405.393 877.684 406.405 877.684 406.405C881.738 410.479 887.452 406.836 887.452 406.836C887.452 406.836 888.616 407.205 891.112 407.168C893.905 407.125 895.809 405.755 896.464 403.926C896.679 403.328 896.886 401.959 896.886 401.959C896.886 401.959 899.614 401.606 900.949 399.406C903.229 395.652 901.415 389.879 897.56 388.886C893.705 387.893 892.928 391.024 892.928 391.024C892.928 391.024 888.253 391.506 888.187 395.13C888.187 395.13 883.973 395.234 884.198 398.225C884.473 401.869 881.872 403.509 881.872 403.509" stroke="#AAAAAA" stroke-width="1.2" stroke-miterlimit="10" stroke-linecap="round" stroke-linejoin="round"/>
<path d="M880.229 396.05C878.491 397.088 876.742 398.812 876.742 400.988Z" fill="#8FDB8F"/>
<path d="M880.229 396.05C878.491 397.088 876.742 398.812 876.742 400.988" stroke="#AAAAAA" stroke-width="1.2" stroke-miterlimit="10" stroke-linecap="round" stroke-linejoin="round"/>
<path d="M887.452 406.835C887.452 406.835 889.515 404.433 887.875 400.499Z" fill="#8FDB8F"/>
<path d="M887.452 406.835C887.452 406.835 889.515 404.433 887.875 400.499" stroke="#AAAAAA" stroke-width="1.2" stroke-miterlimit="10" stroke-linecap="round" stroke-linejoin="round"/>
<path d="M888.187 395.129C888.187 395.129 892.928 396.304 891.954 403.667Z" fill="#8FDB8F"/>
<path d="M888.187 395.129C888.187 395.129 892.928 396.304 891.954 403.667" stroke="#AAAAAA" stroke-width="1.2" stroke-miterlimit="10" stroke-linecap="round" stroke-linejoin="round"/>
<path d="M896.254 404.433C896.254 404.433 898.404 401.179 894.771 397.459Z" fill="#8FDB8F"/>
<path d="M896.254 404.433C896.254 404.433 898.404 401.179 894.771 397.459" stroke="#AAAAAA" stroke-width="1.2" stroke-miterlimit="10" stroke-linecap="round" stroke-linejoin="round"/>
<path d="M892.928 391.023C892.928 391.023 896.296 390.285 898.158 396.051Z" fill="#8FDB8F"/>
<path d="M892.928 391.023C892.928 391.023 896.296 390.285 898.158 396.051" stroke="#AAAAAA" stroke-width="1.2" stroke-miterlimit="10" stroke-linecap="round" stroke-linejoin="round"/>
<path d="M900.062 377.359C900.063 377.359 901.198 378.57 901.613 380.274C901.862 381.297 901.807 383.551 901.807 383.551C901.807 383.551 903.163 387.561 898.689 388.69C898.689 388.69 893.283 389.371 893.548 385.662C893.548 385.662 892.152 390.645 888.33 391.023C888.33 391.023 887.451 394.537 883.533 394.208C880.187 393.927 877.946 392.197 877.016 387.516C876.087 382.836 878.924 382.152 878.924 382.152C878.924 382.152 876.079 382.065 875.422 380.628C875.422 380.628 873.782 376.686 876.619 374.859C876.619 374.859 875.201 372.546 876.353 370.206C876.353 370.206 880.931 369.22 883.262 370.004C883.262 370.004 886.06 377.927 889.215 378.901C892.37 379.875 889.215 378.901 889.215 378.901C889.215 378.901 891.311 380.144 894.418 377.966C897.448 375.839 898.119 377.429 900.062 377.359Z" fill="#8FDB8F" stroke="#AAAAAA" stroke-width="1.2" stroke-miterlimit="10" stroke-linecap="round" stroke-linejoin="round"/>
<path d="M884.473 373.125C884.473 373.125 880.232 371.574 875.992 375.365L884.473 373.125Z" fill="#8FDB8F"/>
<path d="M884.473 373.125C884.473 373.125 880.232 371.574 875.992 375.365" stroke="#AAAAAA" stroke-width="1.2" stroke-miterlimit="10" stroke-linecap="round" stroke-linejoin="round"/>
<path d="M878.924 382.151C878.924 382.151 882.752 383.156 884.472 382.288C884.472 382.288 883.71 384.07 884.472 385.396" fill="#8FDB8F"/>
<path d="M878.924 382.151C878.924 382.151 882.752 383.156 884.472 382.288C884.472 382.288 883.71 384.07 884.472 385.396" stroke="#AAAAAA" stroke-width="1.2" stroke-miterlimit="10" stroke-linecap="round" stroke-linejoin="round"/>
<path d="M879.811 378.684C879.811 378.684 881.959 375.971 886.202 376.047L879.811 378.684Z" fill="#8FDB8F"/>
<path d="M879.811 378.684C879.811 378.684 881.959 375.971 886.202 376.047" stroke="#AAAAAA" stroke-width="1.2" stroke-miterlimit="10" stroke-linecap="round" stroke-linejoin="round"/>
<path d="M884.473 382.289C884.473 382.289 885.344 380.804 887.452 380.273L884.473 382.289Z" fill="#8FDB8F"/>
<path d="M884.473 382.289C884.473 382.289 885.344 380.804 887.452 380.273" stroke="#AAAAAA" stroke-width="1.2" stroke-miterlimit="10" stroke-linecap="round" stroke-linejoin="round"/>
<path d="M881.698 386.786C881.698 386.786 881.961 390.997 888.33 391.023Z" fill="#8FDB8F"/>
<path d="M881.698 386.786C881.698 386.786 881.961 390.997 888.33 391.023" stroke="#AAAAAA" stroke-width="1.2" stroke-miterlimit="10" stroke-linecap="round" stroke-linejoin="round"/>
<path d="M897.448 383.774C897.448 383.774 900.351 382.77 901.779 383.774Z" fill="#8FDB8F"/>
<path d="M897.448 383.774C897.448 383.774 900.351 382.77 901.779 383.774" stroke="#AAAAAA" stroke-width="1.2" stroke-miterlimit="10" stroke-linecap="round" stroke-linejoin="round"/>
<path d="M882.951 369.873C882.951 369.873 889.692 366.937 891.953 372.9" stroke="#AAAAAA" stroke-width="1.2" stroke-miterlimit="10" stroke-linecap="round" stroke-linejoin="round"/>
<path d="M888.674 352.761C888.674 352.761 882.647 353.91 879.101 351.79C875.555 349.671 869.263 348.922 866.117 352.432C862.97 355.942 862.172 361.947 865.673 366.408C869.174 370.867 873.206 370.205 875.245 370.116C877.283 370.029 882.513 369.101 883.533 370.202C883.897 370.596 885.069 375.094 887.255 377.448C889.441 379.801 892.64 380.009 893.991 378.419C896.694 375.239 899.309 377.977 900.063 377.359C900.816 376.741 901.126 363.581 888.54 361.506C875.955 359.431 872.932 365.137 872.232 360.358C871.612 356.118 880.43 360.402 885.926 359.078C891.421 357.752 890.491 357.885 890.491 357.885" stroke="#AAAAAA" stroke-width="1.2" stroke-miterlimit="10" stroke-linecap="round" stroke-linejoin="round"/>
<path d="M864.013 363.409C864.013 363.409 859.559 364.907 859.426 368.793C859.294 372.679 858.575 372.361 856.767 374.489C852.391 379.645 857.521 382.969 857.521 382.969C857.521 382.969 855.316 387.098 859.071 388.886C859.071 388.886 855.182 393.556 859.931 395.775C859.931 395.775 857.409 399.584 860.932 402.2C860.932 402.2 856.025 407.584 861.198 409.619C865.07 411.143 867.015 409.321 864.013 405.976C864.013 405.976 865.187 407.565 868.577 408.096C871.966 408.626 876.055 408.891 877.684 406.406C878.96 404.46 878.547 400.213 873.23 399.883C873.23 399.883 878.947 396.041 873.961 390.477C873.961 390.477 877.185 389.847 876.917 386.214C876.692 383.17 874.493 383.058 874.493 383.058C874.493 383.058 876.62 378.818 872.898 376.765C872.898 376.765 875.38 374.358 872.898 370.473C872.898 370.469 866.516 369.847 864.013 363.409Z" stroke="#AAAAAA" stroke-width="1.2" stroke-miterlimit="10" stroke-linecap="round" stroke-linejoin="round"/>
<path d="M863.381 370.205C863.381 370.205 867.414 372.49 867.712 376.047" stroke="#AAAAAA" stroke-width="1.2" stroke-miterlimit="10" stroke-linecap="round" stroke-linejoin="round"/>
<path d="M862.527 372.899C862.527 372.899 865.07 377.358 872.897 376.761" stroke="#AAAAAA" stroke-width="1.2" stroke-miterlimit="10" stroke-linecap="round" stroke-linejoin="round"/>
<path d="M857.521 382.967C857.521 382.967 858.341 380.206 870.372 381.862" stroke="#AAAAAA" stroke-width="1.2" stroke-miterlimit="10" stroke-linecap="round" stroke-linejoin="round"/>
<path d="M861.73 384.579C861.73 384.579 870.904 389.679 874.493 383.055" stroke="#AAAAAA" stroke-width="1.2" stroke-miterlimit="10" stroke-linecap="round" stroke-linejoin="round"/>
<path d="M859.071 388.884C859.071 388.884 863.946 392.328 873.961 390.474" stroke="#AAAAAA" stroke-width="1.2" stroke-miterlimit="10" stroke-linecap="round" stroke-linejoin="round"/>
<path d="M859.769 396.05C859.769 396.05 861.198 393.124 870.371 394.647" stroke="#AAAAAA" stroke-width="1.2" stroke-miterlimit="10" stroke-linecap="round" stroke-linejoin="round"/>
<path d="M873.818 399.405C869.396 404.076 860.932 402.199 860.932 402.199" stroke="#AAAAAA" stroke-width="1.2" stroke-miterlimit="10" stroke-linecap="round" stroke-linejoin="round"/>
<path d="M867.351 402.408C867.351 402.408 869.507 403.788 873.662 403.457" stroke="#AAAAAA" stroke-width="1.2" stroke-miterlimit="10" stroke-linecap="round" stroke-linejoin="round"/>
<path d="M1111.68 406.403C1115.74 410.477 1121.45 406.834 1121.45 406.834C1121.45 406.834 1122.62 407.203 1125.11 407.166C1127.9 407.123 1129.81 405.753 1130.46 403.924C1130.68 403.326 1130.88 401.957 1130.88 401.957C1130.88 401.957 1133.61 401.604 1134.95 399.404C1137.23 395.65 1135.41 389.877 1131.56 388.884C1127.7 387.892 1126.93 391.022 1126.93 391.022C1126.93 391.022 1122.25 391.504 1122.19 395.128C1122.19 395.128 1117.97 395.232 1118.2 398.223C1118.47 401.867 1115.87 403.507 1115.87 403.507" stroke="#AAAAAA" stroke-width="1.2" stroke-miterlimit="10" stroke-linecap="round" stroke-linejoin="round"/>
<path d="M1112.29 391.666C1112.29 391.666 1110.09 391.666 1109.76 393.449" stroke="#AAAAAA" stroke-width="1.2" stroke-miterlimit="10" stroke-linecap="round" stroke-linejoin="round"/>
<path d="M1119.98 395.617C1119.98 395.617 1119.43 394.019 1118.04 394.226" stroke="#AAAAAA" stroke-width="1.2" stroke-miterlimit="10" stroke-linecap="round" stroke-linejoin="round"/>
<path d="M1111.02 400.987C1111.02 400.987 1110.71 397.494 1113.81 395.64" stroke="#AAAAAA" stroke-width="1.2" stroke-miterlimit="10" stroke-linecap="round" stroke-linejoin="round"/>
<path d="M1121.45 406.834C1121.45 406.834 1123.52 404.432 1121.88 400.498" stroke="#AAAAAA" stroke-width="1.2" stroke-miterlimit="10" stroke-linecap="round" stroke-linejoin="round"/>
<path d="M1122.19 395.128C1122.19 395.128 1126.93 396.303 1125.95 403.666" stroke="#AAAAAA" stroke-width="1.2" stroke-miterlimit="10" stroke-linecap="round" stroke-linejoin="round"/>
<path d="M1130.25 404.432C1130.25 404.432 1132.4 401.178 1128.77 397.458" stroke="#AAAAAA" stroke-width="1.2" stroke-miterlimit="10" stroke-linecap="round" stroke-linejoin="round"/>
<path d="M1126.93 391.022C1126.93 391.022 1130.3 390.284 1132.16 396.05" stroke="#AAAAAA" stroke-width="1.2" stroke-miterlimit="10" stroke-linecap="round" stroke-linejoin="round"/>
<path d="M1098.01 363.409C1098.01 363.409 1093.56 364.906 1093.43 368.792C1093.29 372.678 1092.57 372.36 1090.77 374.489C1086.39 379.644 1091.52 382.968 1091.52 382.968C1091.52 382.968 1089.32 387.097 1093.07 388.885C1093.07 388.885 1089.18 393.555 1093.93 395.773C1093.93 395.773 1091.41 399.582 1094.93 402.198C1094.93 402.198 1090.03 407.583 1095.2 409.618C1099.07 411.142 1101.01 409.32 1098.01 405.974C1098.01 405.974 1099.19 407.564 1102.58 408.094C1105.97 408.624 1110.05 408.889 1111.68 406.405C1112.96 404.458 1112.55 400.212 1107.23 399.881C1107.23 399.881 1112.95 396.039 1107.96 390.475C1107.96 390.475 1111.18 389.846 1110.92 386.213C1110.69 383.169 1108.49 383.057 1108.49 383.057C1108.49 383.057 1110.62 378.817 1106.9 376.764C1106.9 376.764 1109.38 374.357 1106.9 370.472C1106.9 370.469 1100.52 369.846 1098.01 363.409Z" fill="#E59CB5" stroke="#AAAAAA" stroke-width="1.2" stroke-miterlimit="10" stroke-linecap="round" stroke-linejoin="round"/>
<path d="M1097.38 370.204C1097.38 370.204 1101.41 372.489 1101.71 376.046" stroke="#AAAAAA" stroke-width="1.2" stroke-miterlimit="10" stroke-linecap="round" stroke-linejoin="round"/>
<path d="M1096.53 372.899C1096.53 372.899 1099.07 377.359 1106.9 376.762" stroke="#AAAAAA" stroke-width="1.2" stroke-miterlimit="10" stroke-linecap="round" stroke-linejoin="round"/>
<path d="M1091.52 382.966C1091.52 382.966 1092.34 380.205 1104.37 381.861L1091.52 382.966Z" fill="#E59CB5"/>
<path d="M1091.52 382.966C1091.52 382.966 1092.34 380.205 1104.37 381.861" stroke="#AAAAAA" stroke-width="1.2" stroke-miterlimit="10" stroke-linecap="round" stroke-linejoin="round"/>
<path d="M1095.73 384.578C1095.73 384.578 1104.9 389.679 1108.49 383.054Z" fill="#E59CB5"/>
<path d="M1095.73 384.578C1095.73 384.578 1104.9 389.679 1108.49 383.054" stroke="#AAAAAA" stroke-width="1.2" stroke-miterlimit="10" stroke-linecap="round" stroke-linejoin="round"/>
<path d="M1093.07 388.883C1093.07 388.883 1097.95 392.327 1107.96 390.473Z" fill="#E59CB5"/>
<path d="M1093.07 388.883C1093.07 388.883 1097.95 392.327 1107.96 390.473" stroke="#AAAAAA" stroke-width="1.2" stroke-miterlimit="10" stroke-linecap="round" stroke-linejoin="round"/>
<path d="M1093.77 396.049C1093.77 396.049 1095.2 393.123 1104.37 394.646Z" fill="#E59CB5"/>
<path d="M1093.77 396.049C1093.77 396.049 1095.2 393.123 1104.37 394.646" stroke="#AAAAAA" stroke-width="1.2" stroke-miterlimit="10" stroke-linecap="round" stroke-linejoin="round"/>
<path d="M1094.93 402.197C1094.93 402.197 1103.4 404.075 1107.82 399.404Z" fill="#E59CB5"/>
<path d="M1094.93 402.197C1094.93 402.197 1103.4 404.075 1107.82 399.404" stroke="#AAAAAA" stroke-width="1.2" stroke-miterlimit="10" stroke-linecap="round" stroke-linejoin="round"/>
<path d="M1101.35 402.407C1101.35 402.407 1103.51 403.787 1107.66 403.455Z" fill="#E59CB5"/>
<path d="M1101.35 402.407C1101.35 402.407 1103.51 403.787 1107.66 403.455" stroke="#AAAAAA" stroke-width="1.2" stroke-miterlimit="10" stroke-linecap="round" stroke-linejoin="round"/>
<path d="M1134.06 377.359C1134.06 377.359 1135.2 378.569 1135.61 380.274C1135.86 381.296 1135.81 383.551 1135.81 383.551C1135.81 383.551 1137.16 387.56 1132.69 388.69C1132.69 388.69 1127.28 389.37 1127.55 385.661C1127.55 385.661 1126.15 390.644 1122.33 391.022C1122.33 391.022 1121.45 394.537 1117.53 394.208C1114.19 393.927 1111.95 392.196 1111.02 387.516C1110.09 382.835 1112.92 382.151 1112.92 382.151C1112.92 382.151 1110.08 382.064 1109.42 380.627C1109.42 380.627 1107.78 376.686 1110.62 374.858C1110.62 374.858 1109.2 372.546 1110.35 370.205" stroke="#AAAAAA" stroke-width="1.2" stroke-miterlimit="10" stroke-linecap="round" stroke-linejoin="round"/>
<path d="M1118.47 373.125C1118.47 373.125 1114.23 371.574 1109.99 375.364" stroke="#AAAAAA" stroke-width="1.2" stroke-miterlimit="10" stroke-linecap="round" stroke-linejoin="round"/>
<path d="M1112.92 382.15C1112.92 382.15 1116.75 383.155 1118.47 382.287C1118.47 382.287 1117.71 384.069 1118.47 385.395" stroke="#AAAAAA" stroke-width="1.2" stroke-miterlimit="10" stroke-linecap="round" stroke-linejoin="round"/>
<path d="M1113.81 378.683C1113.81 378.683 1115.96 375.97 1120.2 376.046" stroke="#AAAAAA" stroke-width="1.2" stroke-miterlimit="10" stroke-linecap="round" stroke-linejoin="round"/>
<path d="M1118.47 382.288C1118.47 382.288 1119.34 380.803 1121.45 380.273" stroke="#AAAAAA" stroke-width="1.2" stroke-miterlimit="10" stroke-linecap="round" stroke-linejoin="round"/>
<path d="M1115.7 386.785C1115.7 386.785 1115.96 390.996 1122.33 391.022" stroke="#AAAAAA" stroke-width="1.2" stroke-miterlimit="10" stroke-linecap="round" stroke-linejoin="round"/>
<path d="M1131.45 383.773C1131.45 383.773 1134.35 382.769 1135.78 383.773" stroke="#AAAAAA" stroke-width="1.2" stroke-miterlimit="10" stroke-linecap="round" stroke-linejoin="round"/>
<path d="M1116.95 369.872C1116.95 369.872 1123.69 366.937 1125.95 372.899" stroke="#AAAAAA" stroke-width="1.2" stroke-miterlimit="10" stroke-linecap="round" stroke-linejoin="round"/>
<path d="M1122.67 352.761C1122.67 352.761 1116.65 353.91 1113.1 351.79C1109.56 349.671 1103.26 348.922 1100.12 352.432C1096.97 355.941 1096.17 361.947 1099.67 366.408C1103.17 370.867 1107.21 370.204 1109.25 370.116C1111.28 370.028 1116.51 369.101 1117.53 370.201C1117.9 370.595 1119.07 375.093 1121.26 377.447C1123.44 379.8 1126.64 380.009 1127.99 378.418C1130.69 375.239 1133.31 377.976 1134.06 377.359C1134.82 376.74 1135.13 363.581 1122.54 361.505C1109.96 359.431 1106.93 365.137 1106.23 360.358C1105.61 356.118 1114.43 360.402 1119.93 359.077C1125.42 357.752 1124.49 357.884 1124.49 357.884" stroke="#AAAAAA" stroke-width="1.2" stroke-miterlimit="10" stroke-linecap="round" stroke-linejoin="round"/>
<path d="M177.809 409.522V397.699C177.809 397.699 177.476 393.861 174.29 393.458C173.232 393.324 173.873 394.17 171.465 395.137C169.057 396.104 167.127 396.973 162.746 395.325C158.365 393.677 158.621 394.044 158.621 394.044C157.496 393.513 158.09 392.075 158.09 392.075C158.09 392.075 159.215 391.419 160.684 390.762C162.153 390.105 164.428 391.481 168.903 390.668C173.378 389.855 176.875 389.036 178.872 389.683C178.872 389.683 181.246 390.628 181.153 393.731C181.057 396.948 181.155 409.481 181.155 409.481C181.155 409.481 179.465 411.042 177.809 409.522Z" fill="#BC87C1"/>
<path d="M177.977 410V397.986C177.977 397.986 178.159 392.961 173.498 393.389C173.498 393.389 170.895 395.473 168.293 395.841C165.69 396.208 160.848 394.492 159.698 393.941C158.548 393.39 157.398 394.431 157.156 394.738C156.914 395.045 158.246 396.637 158.246 396.637C158.246 396.637 158.367 398.292 158.367 399.151C158.367 400.008 158.549 402.706 162.846 402.706C167.143 402.706 171.864 401.174 171.864 401.174V410" stroke="#AAAAAA" stroke-width="1.2" stroke-miterlimit="10" stroke-linecap="round" stroke-linejoin="round"/>
<path d="M181.003 410C181.003 410 181.124 398.109 181.003 393.267C180.882 388.426 175.882 389.712 171.258 390.509C168.655 391.367 164.964 390.999 163.148 390.816C161.332 390.633 159.879 391.306 158.911 391.92C157.943 392.532 156.974 392.288 156.551 391.92C156.127 391.552 157.156 390.449 157.156 390.449C157.156 390.449 157.58 389.222 157.58 388.549C157.58 387.874 154.796 387.752 154.796 387.752C152.375 386.955 153.102 384.626 153.102 384.626L157.883 377.884C155.22 370.958 157.459 363.052 163.754 358.577C173.038 351.977 184.27 353.223 190.567 357.842C200.832 365.37 199.161 375.004 198.435 378.681C197.708 382.359 194.803 384.565 194.077 389.162C193.351 393.759 195.227 410.001 195.227 410.001" stroke="#AAAAAA" stroke-width="1.3" stroke-miterlimit="10" stroke-linecap="round" stroke-linejoin="round"/>
<path d="M430.476 394.675C429.246 395.998 430.994 394.673 425.163 395.55C421.624 396.082 421.585 396.065 413.378 394.987C408.483 394.344 407.647 396.079 399.272 394.954C393.635 394.197 392.463 393.334 392.713 394.692C393.435 398.6 397.527 405.087 403.179 406.409C407.74 407.476 409.218 407.013 409.218 407.013C409.218 407.013 418.046 404.858 420.517 403.45C423.41 401.8 430.476 394.675 430.476 394.675Z" fill="#6EB4E0"/>
<path d="M402.455 354.502C402.455 354.502 403.312 365.72 408.768 370.098C408.768 370.098 408.755 372.848 408.103 374.909C407.456 376.955 405.07 379.955 403.897 385.125C403.897 385.125 399.837 383.618 394.878 384.174C390.639 384.65 383.624 387.813 382.18 397.082C380.736 406.351 388.474 410.001 388.474 410.001" stroke="#AAAAAA" stroke-width="1.2" stroke-miterlimit="10" stroke-linecap="round" stroke-linejoin="round"/>
<path d="M391.632 406.17C391.632 406.17 387.032 401.4 389.467 397.081C391.902 392.763 392.714 394.692 392.714 394.692C392.714 394.692 395.652 408.391 409.67 406.899C428.519 404.892 439.979 384.561 437.718 372.332C435.914 362.573 428.458 353.179 412.931 360.566C412.931 360.566 410.842 361.843 409.398 358.743C407.955 355.641 406.693 354 406.693 354" stroke="#AAAAAA" stroke-width="1.2" stroke-miterlimit="10" stroke-linecap="round" stroke-linejoin="round"/>
<path d="M403.898 385.125C403.898 385.125 408.476 386.551 410.164 391.613" stroke="#AAAAAA" stroke-width="1.2" stroke-miterlimit="10" stroke-linecap="round" stroke-linejoin="round"/>
<path d="M408.768 370.098C408.768 370.098 410.842 366.371 415.351 365.932" stroke="#AAAAAA" stroke-width="1.2" stroke-miterlimit="10" stroke-linecap="round" stroke-linejoin="round"/>
<path d="M114.22 434.5C114.89 434.5 115.495 434.65 116.035 434.95C116.585 435.25 117.015 435.665 117.325 436.195C117.635 436.725 117.79 437.315 117.79 437.965C117.79 438.955 117.45 439.78 116.77 440.44C116.09 441.1 115.24 441.43 114.22 441.43H112.06V445H110.335V434.5H114.22ZM114.13 439.795C114.41 439.795 114.665 439.75 114.895 439.66C115.135 439.57 115.34 439.445 115.51 439.285C115.68 439.125 115.81 438.93 115.9 438.7C116 438.47 116.05 438.225 116.05 437.965C116.05 437.615 115.965 437.305 115.795 437.035C115.635 436.755 115.41 436.535 115.12 436.375C114.83 436.215 114.5 436.135 114.13 436.135H112.06V439.795H114.13ZM126.151 443.995C125.331 444.795 124.301 445.195 123.061 445.195C121.821 445.195 120.786 444.795 119.956 443.995C119.136 443.185 118.726 442.17 118.726 440.95C118.726 440.15 118.911 439.425 119.281 438.775C119.661 438.125 120.181 437.62 120.841 437.26C121.511 436.89 122.251 436.705 123.061 436.705C123.871 436.705 124.606 436.89 125.266 437.26C125.936 437.62 126.456 438.125 126.826 438.775C127.206 439.425 127.396 440.15 127.396 440.95C127.396 442.17 126.981 443.185 126.151 443.995ZM123.061 443.605C123.571 443.605 124.026 443.495 124.426 443.275C124.826 443.045 125.136 442.73 125.356 442.33C125.586 441.92 125.701 441.46 125.701 440.95C125.701 440.18 125.451 439.545 124.951 439.045C124.461 438.545 123.831 438.295 123.061 438.295C122.291 438.295 121.656 438.545 121.156 439.045C120.666 439.545 120.421 440.18 120.421 440.95C120.421 441.72 120.666 442.355 121.156 442.855C121.656 443.355 122.291 443.605 123.061 443.605ZM135.34 436.9V438.4H132.49V445H130.87V438.4H128.005V436.9H135.34ZM143.392 443.995C142.572 444.795 141.542 445.195 140.302 445.195C139.062 445.195 138.027 444.795 137.197 443.995C136.377 443.185 135.967 442.17 135.967 440.95C135.967 440.15 136.152 439.425 136.522 438.775C136.902 438.125 137.422 437.62 138.082 437.26C138.752 436.89 139.492 436.705 140.302 436.705C141.112 436.705 141.847 436.89 142.507 437.26C143.177 437.62 143.697 438.125 144.067 438.775C144.447 439.425 144.637 440.15 144.637 440.95C144.637 442.17 144.222 443.185 143.392 443.995ZM140.302 443.605C140.812 443.605 141.267 443.495 141.667 443.275C142.067 443.045 142.377 442.73 142.597 442.33C142.827 441.92 142.942 441.46 142.942 440.95C142.942 440.18 142.692 439.545 142.192 439.045C141.702 438.545 141.072 438.295 140.302 438.295C139.532 438.295 138.897 438.545 138.397 439.045C137.907 439.545 137.662 440.18 137.662 440.95C137.662 441.72 137.907 442.355 138.397 442.855C138.897 443.355 139.532 443.605 140.302 443.605ZM151.901 440.77C152.091 440.85 152.261 440.955 152.411 441.085C152.571 441.205 152.706 441.35 152.816 441.52C152.926 441.68 153.011 441.86 153.071 442.06C153.131 442.26 153.161 442.465 153.161 442.675C153.161 443.335 152.921 443.89 152.441 444.34C151.961 444.78 151.361 445 150.641 445H146.411V436.9H150.581C151.261 436.9 151.816 437.095 152.246 437.485C152.686 437.865 152.906 438.36 152.906 438.97C152.906 439.35 152.816 439.7 152.636 440.02C152.456 440.34 152.211 440.59 151.901 440.77ZM151.256 439.24C151.256 438.96 151.161 438.735 150.971 438.565C150.791 438.395 150.551 438.31 150.251 438.31H148.046V440.17H150.251C150.551 440.17 150.791 440.085 150.971 439.915C151.161 439.745 151.256 439.52 151.256 439.24ZM150.341 443.545C150.671 443.545 150.936 443.45 151.136 443.26C151.346 443.07 151.451 442.83 151.451 442.54C151.451 442.24 151.346 441.995 151.136 441.805C150.926 441.615 150.656 441.52 150.326 441.52H148.046V443.545H150.341ZM161.819 436.9H163.109V445H161.759L161.594 444.01C160.814 444.8 159.839 445.195 158.669 445.195C157.459 445.195 156.449 444.79 155.639 443.98C154.839 443.17 154.439 442.16 154.439 440.95C154.439 439.73 154.839 438.72 155.639 437.92C156.449 437.11 157.459 436.705 158.669 436.705C159.859 436.705 160.844 437.105 161.624 437.905L161.819 436.9ZM156.884 442.855C157.394 443.355 158.029 443.605 158.789 443.605C159.559 443.605 160.189 443.355 160.679 442.855C161.179 442.345 161.429 441.71 161.429 440.95C161.429 440.18 161.179 439.545 160.679 439.045C160.189 438.545 159.559 438.295 158.789 438.295C158.289 438.295 157.834 438.41 157.424 438.64C157.024 438.87 156.709 439.19 156.479 439.6C156.249 440 156.134 440.45 156.134 440.95C156.134 441.71 156.384 442.345 156.884 442.855ZM167.748 436.9H171.618V445H169.998V442.03H168.303L166.533 445H164.718L166.653 441.76C166.163 441.56 165.778 441.26 165.498 440.86C165.218 440.46 165.078 439.995 165.078 439.465C165.078 438.735 165.333 438.125 165.843 437.635C166.353 437.145 166.988 436.9 167.748 436.9ZM167.973 440.575H169.998V438.37H167.973C167.733 438.37 167.518 438.42 167.328 438.52C167.148 438.61 167.008 438.74 166.908 438.91C166.808 439.07 166.758 439.26 166.758 439.48C166.758 439.8 166.868 440.065 167.088 440.275C167.308 440.475 167.603 440.575 167.973 440.575ZM177.773 436.9H184.838V445H183.188V438.415H179.438V445H177.773V436.9ZM194.031 443.995C193.211 444.795 192.181 445.195 190.941 445.195C189.701 445.195 188.666 444.795 187.836 443.995C187.016 443.185 186.606 442.17 186.606 440.95C186.606 440.15 186.791 439.425 187.161 438.775C187.541 438.125 188.061 437.62 188.721 437.26C189.391 436.89 190.131 436.705 190.941 436.705C191.751 436.705 192.486 436.89 193.146 437.26C193.816 437.62 194.336 438.125 194.706 438.775C195.086 439.425 195.276 440.15 195.276 440.95C195.276 442.17 194.861 443.185 194.031 443.995ZM190.941 443.605C191.451 443.605 191.906 443.495 192.306 443.275C192.706 443.045 193.016 442.73 193.236 442.33C193.466 441.92 193.581 441.46 193.581 440.95C193.581 440.18 193.331 439.545 192.831 439.045C192.341 438.545 191.711 438.295 190.941 438.295C190.171 438.295 189.536 438.545 189.036 439.045C188.546 439.545 188.301 440.18 188.301 440.95C188.301 441.72 188.546 442.355 189.036 442.855C189.536 443.355 190.171 443.605 190.941 443.605ZM198.285 436.9H203.79V445H202.155V438.34H199.65L199.29 441.925C199.18 443.065 198.885 443.87 198.405 444.34C197.935 444.81 197.22 445.045 196.26 445.045H195.975V443.515H196.365C197.155 443.515 197.6 443.02 197.7 442.03L198.285 436.9ZM212.987 443.995C212.167 444.795 211.137 445.195 209.897 445.195C208.657 445.195 207.622 444.795 206.792 443.995C205.972 443.185 205.562 442.17 205.562 440.95C205.562 440.15 205.747 439.425 206.117 438.775C206.497 438.125 207.017 437.62 207.677 437.26C208.347 436.89 209.087 436.705 209.897 436.705C210.707 436.705 211.442 436.89 212.102 437.26C212.772 437.62 213.292 438.125 213.662 438.775C214.042 439.425 214.232 440.15 214.232 440.95C214.232 442.17 213.817 443.185 212.987 443.995ZM209.897 443.605C210.407 443.605 210.862 443.495 211.262 443.275C211.662 443.045 211.972 442.73 212.192 442.33C212.422 441.92 212.537 441.46 212.537 440.95C212.537 440.18 212.287 439.545 211.787 439.045C211.297 438.545 210.667 438.295 209.897 438.295C209.127 438.295 208.492 438.545 207.992 439.045C207.502 439.545 207.257 440.18 207.257 440.95C207.257 441.72 207.502 442.355 207.992 442.855C208.492 443.355 209.127 443.605 209.897 443.605ZM219.65 445.195C218.45 445.195 217.44 444.79 216.62 443.98C215.81 443.16 215.405 442.15 215.405 440.95C215.405 439.74 215.81 438.73 216.62 437.92C217.44 437.11 218.455 436.705 219.665 436.705C220.655 436.705 221.515 436.985 222.245 437.545C222.975 438.105 223.45 438.85 223.67 439.78H222.02C221.81 439.32 221.495 438.96 221.075 438.7C220.655 438.43 220.18 438.295 219.65 438.295C219.18 438.295 218.75 438.41 218.36 438.64C217.97 438.87 217.66 439.19 217.43 439.6C217.21 440 217.1 440.45 217.1 440.95C217.1 441.7 217.345 442.33 217.835 442.84C218.325 443.35 218.93 443.605 219.65 443.605C220.18 443.605 220.65 443.47 221.06 443.2C221.48 442.93 221.8 442.545 222.02 442.045H223.7C223.47 442.995 222.985 443.76 222.245 444.34C221.515 444.91 220.65 445.195 219.65 445.195ZM231.668 436.9V438.4H228.818V445H227.198V438.4H224.333V436.9H231.668ZM236.489 439.3C237.379 439.3 238.099 439.565 238.649 440.095C239.199 440.625 239.474 441.315 239.474 442.165C239.474 443.005 239.199 443.69 238.649 444.22C238.099 444.74 237.379 445 236.489 445H233.129V436.9H234.764V439.3H236.489ZM236.294 443.56C236.744 443.56 237.109 443.435 237.389 443.185C237.669 442.925 237.809 442.585 237.809 442.165C237.809 441.885 237.744 441.64 237.614 441.43C237.494 441.21 237.319 441.04 237.089 440.92C236.859 440.8 236.594 440.74 236.294 440.74H234.764V443.56H236.294Z" fill="black"/>
<path d="M156.906 48.18C155.696 48.18 154.736 47.715 154.026 46.785C153.316 45.855 152.961 44.595 152.961 43.005C152.961 41.415 153.311 40.16 154.011 39.24C154.721 38.31 155.686 37.845 156.906 37.845C158.116 37.845 159.071 38.31 159.771 39.24C160.481 40.16 160.836 41.415 160.836 43.005C160.836 44.595 160.481 45.855 159.771 46.785C159.061 47.715 158.106 48.18 156.906 48.18ZM156.906 46.65C157.626 46.65 158.186 46.33 158.586 45.69C158.996 45.05 159.201 44.155 159.201 43.005C159.201 42.245 159.106 41.595 158.916 41.055C158.736 40.505 158.471 40.09 158.121 39.81C157.781 39.52 157.376 39.375 156.906 39.375C156.426 39.375 156.011 39.52 155.661 39.81C155.311 40.09 155.046 40.505 154.866 41.055C154.686 41.595 154.596 42.245 154.596 43.005C154.596 44.155 154.796 45.05 155.196 45.69C155.606 46.33 156.176 46.65 156.906 46.65ZM176.84 48H175.235L174.26 42.48L171.545 47.91H171.2L168.5 42.48L167.525 48H165.92L167.375 39.9H168.785L171.38 45.075L173.99 39.9H175.385L176.84 48ZM184.502 39.9H185.432V48H183.842V42.855L179.522 48H178.562V39.9H180.167V45L184.502 39.9ZM193.205 39.9H194.84V48H193.205V44.61H189.455V48H187.805V39.9H189.455V43.08H193.205V39.9ZM196.999 48V46.08H198.829V48H196.999Z" fill="black"/>
<path d="M388.134 445L384.879 440.395H383.724V445H381.984V440.395H380.814L377.574 445H375.444L379.314 439.525L375.834 434.5H377.874L380.829 438.79H381.984V434.5H383.724V438.79H384.864L387.819 434.5H389.859L386.394 439.525L390.264 445H388.134ZM398.548 440.965C398.548 441.115 398.538 441.3 398.518 441.52H391.948C392.048 442.17 392.318 442.685 392.758 443.065C393.208 443.445 393.763 443.635 394.423 443.635C394.743 443.635 395.043 443.59 395.323 443.5C395.603 443.4 395.848 443.265 396.058 443.095C396.278 442.915 396.458 442.7 396.598 442.45H398.353C398.033 443.31 397.523 443.985 396.823 444.475C396.123 444.955 395.323 445.195 394.423 445.195C393.233 445.195 392.238 444.79 391.438 443.98C390.648 443.17 390.253 442.16 390.253 440.95C390.253 439.74 390.648 438.73 391.438 437.92C392.238 437.11 393.233 436.705 394.423 436.705C395.233 436.705 395.953 436.9 396.583 437.29C397.213 437.67 397.698 438.185 398.038 438.835C398.378 439.475 398.548 440.185 398.548 440.965ZM394.423 438.205C393.803 438.205 393.273 438.38 392.833 438.73C392.403 439.08 392.118 439.56 391.978 440.17H396.883C396.783 439.76 396.618 439.41 396.388 439.12C396.158 438.82 395.873 438.595 395.533 438.445C395.203 438.285 394.833 438.205 394.423 438.205ZM401.58 436.9H407.085V445H405.45V438.34H402.945L402.585 441.925C402.475 443.065 402.18 443.87 401.7 444.34C401.23 444.81 400.515 445.045 399.555 445.045H399.27V443.515H399.66C400.45 443.515 400.895 443.02 400.995 442.03L401.58 436.9ZM415.231 436.9H417.016L413.296 445.15C412.826 446.18 412.346 446.895 411.856 447.295C411.376 447.705 410.731 447.91 409.921 447.91H409.096V446.41H409.786C410.316 446.41 410.706 446.305 410.956 446.095C411.206 445.885 411.481 445.45 411.781 444.79L411.961 444.415L408.436 436.9H410.251L412.816 442.555L415.231 436.9ZM424.885 443.425H425.935V447.04H424.42V445H418.51V447.04H416.995V443.425H417.85C418.08 443.235 418.255 442.945 418.375 442.555C418.505 442.165 418.62 441.575 418.72 440.785C418.82 439.985 418.95 438.69 419.11 436.9H424.885V443.425ZM420.58 438.37C420.47 440 420.345 441.17 420.205 441.88C420.065 442.59 419.86 443.105 419.59 443.425H423.25V438.37H420.58ZM434.402 443.995C433.582 444.795 432.552 445.195 431.312 445.195C430.072 445.195 429.037 444.795 428.207 443.995C427.387 443.185 426.977 442.17 426.977 440.95C426.977 440.15 427.162 439.425 427.532 438.775C427.912 438.125 428.432 437.62 429.092 437.26C429.762 436.89 430.502 436.705 431.312 436.705C432.122 436.705 432.857 436.89 433.517 437.26C434.187 437.62 434.707 438.125 435.077 438.775C435.457 439.425 435.647 440.15 435.647 440.95C435.647 442.17 435.232 443.185 434.402 443.995ZM431.312 443.605C431.822 443.605 432.277 443.495 432.677 443.275C433.077 443.045 433.387 442.73 433.607 442.33C433.837 441.92 433.952 441.46 433.952 440.95C433.952 440.18 433.702 439.545 433.202 439.045C432.712 438.545 432.082 438.295 431.312 438.295C430.542 438.295 429.907 438.545 429.407 439.045C428.917 439.545 428.672 440.18 428.672 440.95C428.672 441.72 428.917 442.355 429.407 442.855C429.907 443.355 430.542 443.605 431.312 443.605ZM442.52 445L440.09 441.55H439.085V445H437.42V436.9H439.085V440.035H440.105L442.31 436.9H444.275L441.53 440.785L444.575 445H442.52Z" fill="black"/>
<path d="M380.699 38.025H384.059V48H382.454V39.48H380.699V38.025ZM390.235 41.76C391.015 41.9 391.64 42.255 392.11 42.825C392.59 43.395 392.83 44.075 392.83 44.865C392.83 45.825 392.5 46.62 391.84 47.25C391.19 47.87 390.375 48.18 389.395 48.18C388.445 48.18 387.655 47.885 387.025 47.295C386.405 46.695 386.075 45.925 386.035 44.985H387.655C387.685 45.485 387.86 45.89 388.18 46.2C388.5 46.5 388.905 46.65 389.395 46.65C389.915 46.65 390.345 46.48 390.685 46.14C391.025 45.79 391.195 45.35 391.195 44.82C391.195 44.56 391.145 44.32 391.045 44.1C390.945 43.87 390.81 43.675 390.64 43.515C390.47 43.355 390.265 43.235 390.025 43.155C389.785 43.065 389.525 43.02 389.245 43.02H387.985V42.705L390.055 39.495H386.335V38.025H392.44V38.355L390.235 41.76ZM397.435 41.61C398.455 41.61 399.29 41.92 399.94 42.54C400.6 43.16 400.93 43.935 400.93 44.865C400.93 45.815 400.605 46.605 399.955 47.235C399.305 47.865 398.495 48.18 397.525 48.18C396.565 48.18 395.765 47.88 395.125 47.28C394.495 46.68 394.165 45.915 394.135 44.985H395.755C395.775 45.475 395.95 45.875 396.28 46.185C396.61 46.495 397.025 46.65 397.525 46.65C398.035 46.65 398.455 46.48 398.785 46.14C399.125 45.8 399.295 45.375 399.295 44.865C399.295 44.695 399.27 44.53 399.22 44.37C399.18 44.21 399.12 44.065 399.04 43.935C398.96 43.795 398.86 43.67 398.74 43.56C398.63 43.45 398.505 43.355 398.365 43.275C398.225 43.195 398.07 43.135 397.9 43.095C397.74 43.055 397.565 43.035 397.375 43.035H394.735L394.54 42.81L395.08 38.025H400.24V39.495H396.385L396.16 41.61H397.435ZM416.773 48H415.168L414.193 42.48L411.478 47.91H411.133L408.433 42.48L407.458 48H405.853L407.308 39.9H408.718L411.313 45.075L413.923 39.9H415.318L416.773 48ZM424.435 39.9H425.365V48H423.775V42.855L419.455 48H418.495V39.9H420.1V45L424.435 39.9ZM433.138 39.9H434.773V48H433.138V44.61H429.388V48H427.738V39.9H429.388V43.08H433.138V39.9ZM436.932 48V46.08H438.762V48H436.932Z" fill="black"/>
<path d="M571.51 435.025H574.87V445H573.265V436.48H571.51V435.025ZM579.846 443.47H583.566V445H576.741V444.565C578.231 442.935 579.306 441.72 579.966 440.92C580.636 440.11 581.081 439.495 581.301 439.075C581.521 438.655 581.631 438.24 581.631 437.83C581.631 437.54 581.566 437.285 581.436 437.065C581.316 436.845 581.141 436.675 580.911 436.555C580.691 436.425 580.431 436.36 580.131 436.36C579.661 436.36 579.281 436.5 578.991 436.78C578.711 437.05 578.571 437.405 578.571 437.845V438.07H576.951V437.845C576.951 436.945 577.241 436.22 577.821 435.67C578.401 435.11 579.166 434.83 580.116 434.83C581.046 434.83 581.801 435.11 582.381 435.67C582.971 436.23 583.266 436.95 583.266 437.83C583.266 438.29 583.181 438.735 583.011 439.165C582.851 439.595 582.521 440.15 582.021 440.83C581.531 441.5 580.806 442.38 579.846 443.47ZM584.955 441.61V439.99H589.77V441.61H584.955ZM591.933 436.9H598.998V445H597.348V438.415H593.598V445H591.933V436.9ZM609.061 440.965C609.061 441.115 609.051 441.3 609.031 441.52H602.461C602.561 442.17 602.831 442.685 603.271 443.065C603.721 443.445 604.276 443.635 604.936 443.635C605.256 443.635 605.556 443.59 605.836 443.5C606.116 443.4 606.361 443.265 606.571 443.095C606.791 442.915 606.971 442.7 607.111 442.45H608.866C608.546 443.31 608.036 443.985 607.336 444.475C606.636 444.955 605.836 445.195 604.936 445.195C603.746 445.195 602.751 444.79 601.951 443.98C601.161 443.17 600.766 442.16 600.766 440.95C600.766 439.74 601.161 438.73 601.951 437.92C602.751 437.11 603.746 436.705 604.936 436.705C605.746 436.705 606.466 436.9 607.096 437.29C607.726 437.67 608.211 438.185 608.551 438.835C608.891 439.475 609.061 440.185 609.061 440.965ZM604.936 438.205C604.316 438.205 603.786 438.38 603.346 438.73C602.916 439.08 602.631 439.56 602.491 440.17H607.396C607.296 439.76 607.131 439.41 606.901 439.12C606.671 438.82 606.386 438.595 606.046 438.445C605.716 438.285 605.346 438.205 604.936 438.205ZM615.179 436.705C615.979 436.705 616.699 436.89 617.339 437.26C617.979 437.62 618.479 438.125 618.839 438.775C619.199 439.425 619.379 440.15 619.379 440.95C619.379 442.17 618.979 443.185 618.179 443.995C617.389 444.795 616.389 445.195 615.179 445.195C614.139 445.195 613.244 444.87 612.494 444.22V447.91H610.829V436.9H611.954L612.269 437.89C613.049 437.1 614.019 436.705 615.179 436.705ZM613.154 442.855C613.654 443.355 614.284 443.605 615.044 443.605C615.814 443.605 616.449 443.355 616.949 442.855C617.449 442.345 617.699 441.71 617.699 440.95C617.699 440.19 617.449 439.56 616.949 439.06C616.449 438.55 615.819 438.295 615.059 438.295C614.559 438.295 614.104 438.41 613.694 438.64C613.284 438.87 612.964 439.19 612.734 439.6C612.514 440 612.404 440.45 612.404 440.95C612.404 441.71 612.654 442.345 613.154 442.855ZM624.816 445.195C623.616 445.195 622.606 444.79 621.786 443.98C620.976 443.16 620.571 442.15 620.571 440.95C620.571 439.74 620.976 438.73 621.786 437.92C622.606 437.11 623.621 436.705 624.831 436.705C625.821 436.705 626.681 436.985 627.411 437.545C628.141 438.105 628.616 438.85 628.836 439.78H627.186C626.976 439.32 626.661 438.96 626.241 438.7C625.821 438.43 625.346 438.295 624.816 438.295C624.346 438.295 623.916 438.41 623.526 438.64C623.136 438.87 622.826 439.19 622.596 439.6C622.376 440 622.266 440.45 622.266 440.95C622.266 441.7 622.511 442.33 623.001 442.84C623.491 443.35 624.096 443.605 624.816 443.605C625.346 443.605 625.816 443.47 626.226 443.2C626.646 442.93 626.966 442.545 627.186 442.045H628.866C628.636 442.995 628.151 443.76 627.411 444.34C626.681 444.91 625.816 445.195 624.816 445.195ZM636.834 436.9V438.4H633.984V445H632.364V438.4H629.499V436.9H636.834ZM643.695 436.9H645.33V445H643.695V441.61H639.945V445H638.295V436.9H639.945V440.08H643.695V436.9ZM654.479 436.9H655.769V445H654.419L654.254 444.01C653.474 444.8 652.499 445.195 651.329 445.195C650.119 445.195 649.109 444.79 648.299 443.98C647.499 443.17 647.099 442.16 647.099 440.95C647.099 439.73 647.499 438.72 648.299 437.92C649.109 437.11 650.119 436.705 651.329 436.705C652.519 436.705 653.504 437.105 654.284 437.905L654.479 436.9ZM649.544 442.855C650.054 443.355 650.689 443.605 651.449 443.605C652.219 443.605 652.849 443.355 653.339 442.855C653.839 442.345 654.089 441.71 654.089 440.95C654.089 440.18 653.839 439.545 653.339 439.045C652.849 438.545 652.219 438.295 651.449 438.295C650.949 438.295 650.494 438.41 650.084 438.64C649.684 438.87 649.369 439.19 649.139 439.6C648.909 440 648.794 440.45 648.794 440.95C648.794 441.71 649.044 442.345 649.544 442.855ZM660.408 436.9H664.278V445H662.658V442.03H660.963L659.193 445H657.378L659.313 441.76C658.823 441.56 658.438 441.26 658.158 440.86C657.878 440.46 657.738 439.995 657.738 439.465C657.738 438.735 657.993 438.125 658.503 437.635C659.013 437.145 659.648 436.9 660.408 436.9ZM660.633 440.575H662.658V438.37H660.633C660.393 438.37 660.178 438.42 659.988 438.52C659.808 438.61 659.668 438.74 659.568 438.91C659.468 439.07 659.418 439.26 659.418 439.48C659.418 439.8 659.528 440.065 659.748 440.275C659.968 440.475 660.263 440.575 660.633 440.575ZM675.534 445L673.104 441.55H672.099V445H670.434V436.9H672.099V440.035H673.119L675.324 436.9H677.289L674.544 440.785L677.589 445H675.534ZM684.679 436.9H685.609V445H684.019V439.855L679.699 445H678.739V436.9H680.344V442L684.679 436.9ZM696.622 436.9H698.257V445H687.982V436.9H689.617V443.47H692.332V436.9H693.922V443.47H696.622V436.9ZM705.724 445L703.294 441.55H702.289V445H700.624V436.9H702.289V440.035H703.309L705.514 436.9H707.479L704.734 440.785L707.779 445H705.724ZM715.446 436.9H716.736V445H715.386L715.221 444.01C714.441 444.8 713.466 445.195 712.296 445.195C711.086 445.195 710.076 444.79 709.266 443.98C708.466 443.17 708.066 442.16 708.066 440.95C708.066 439.73 708.466 438.72 709.266 437.92C710.076 437.11 711.086 436.705 712.296 436.705C713.486 436.705 714.471 437.105 715.251 437.905L715.446 436.9ZM710.511 442.855C711.021 443.355 711.656 443.605 712.416 443.605C713.186 443.605 713.816 443.355 714.306 442.855C714.806 442.345 715.056 441.71 715.056 440.95C715.056 440.18 714.806 439.545 714.306 439.045C713.816 438.545 713.186 438.295 712.416 438.295C711.916 438.295 711.461 438.41 711.051 438.64C710.651 438.87 710.336 439.19 710.106 439.6C709.876 440 709.761 440.45 709.761 440.95C709.761 441.71 710.011 442.345 710.511 442.855Z" fill="black"/>
<path d="M615.052 38.025H618.412V48H616.807V39.48H615.052V38.025ZM624.394 41.445C625.324 41.445 626.114 41.75 626.764 42.36C627.424 42.96 627.754 43.74 627.754 44.7C627.754 45.37 627.599 45.97 627.289 46.5C626.979 47.03 626.544 47.445 625.984 47.745C625.434 48.035 624.809 48.18 624.109 48.18C623.029 48.18 622.144 47.855 621.454 47.205C620.774 46.555 620.434 45.72 620.434 44.7C620.434 43.78 620.794 42.695 621.514 41.445L623.509 37.965H625.279C624.129 40.005 623.439 41.24 623.209 41.67C623.599 41.52 623.994 41.445 624.394 41.445ZM624.094 46.65C624.684 46.65 625.169 46.47 625.549 46.11C625.929 45.74 626.119 45.27 626.119 44.7C626.119 44.12 625.929 43.65 625.549 43.29C625.169 42.92 624.684 42.735 624.094 42.735C623.714 42.735 623.369 42.82 623.059 42.99C622.749 43.16 622.504 43.395 622.324 43.695C622.154 43.985 622.069 44.32 622.069 44.7C622.069 45.27 622.259 45.74 622.639 46.11C623.029 46.47 623.514 46.65 624.094 46.65ZM632.082 41.61C633.102 41.61 633.937 41.92 634.587 42.54C635.247 43.16 635.577 43.935 635.577 44.865C635.577 45.815 635.252 46.605 634.602 47.235C633.952 47.865 633.142 48.18 632.172 48.18C631.212 48.18 630.412 47.88 629.772 47.28C629.142 46.68 628.812 45.915 628.782 44.985H630.402C630.422 45.475 630.597 45.875 630.927 46.185C631.257 46.495 631.672 46.65 632.172 46.65C632.682 46.65 633.102 46.48 633.432 46.14C633.772 45.8 633.942 45.375 633.942 44.865C633.942 44.695 633.917 44.53 633.867 44.37C633.827 44.21 633.767 44.065 633.687 43.935C633.607 43.795 633.507 43.67 633.387 43.56C633.277 43.45 633.152 43.355 633.012 43.275C632.872 43.195 632.717 43.135 632.547 43.095C632.387 43.055 632.212 43.035 632.022 43.035H629.382L629.187 42.81L629.727 38.025H634.887V39.495H631.032L630.807 41.61H632.082ZM651.419 48H649.814L648.839 42.48L646.124 47.91H645.779L643.079 42.48L642.104 48H640.499L641.954 39.9H643.364L645.959 45.075L648.569 39.9H649.964L651.419 48ZM659.081 39.9H660.011V48H658.421V42.855L654.101 48H653.141V39.9H654.746V45L659.081 39.9ZM667.784 39.9H669.419V48H667.784V44.61H664.034V48H662.384V39.9H664.034V43.08H667.784V39.9ZM671.579 48V46.08H673.409V48H671.579Z" fill="black"/>
<path d="M835.875 434.5V436.105H832.785V445H831.075V436.105H827.985V434.5H835.875ZM843.107 443.995C842.287 444.795 841.257 445.195 840.017 445.195C838.777 445.195 837.742 444.795 836.912 443.995C836.092 443.185 835.682 442.17 835.682 440.95C835.682 440.15 835.867 439.425 836.237 438.775C836.617 438.125 837.137 437.62 837.797 437.26C838.467 436.89 839.207 436.705 840.017 436.705C840.827 436.705 841.562 436.89 842.222 437.26C842.892 437.62 843.412 438.125 843.782 438.775C844.162 439.425 844.352 440.15 844.352 440.95C844.352 442.17 843.937 443.185 843.107 443.995ZM840.017 443.605C840.527 443.605 840.982 443.495 841.382 443.275C841.782 443.045 842.092 442.73 842.312 442.33C842.542 441.92 842.657 441.46 842.657 440.95C842.657 440.18 842.407 439.545 841.907 439.045C841.417 438.545 840.787 438.295 840.017 438.295C839.247 438.295 838.612 438.545 838.112 439.045C837.622 439.545 837.377 440.18 837.377 440.95C837.377 441.72 837.622 442.355 838.112 442.855C838.612 443.355 839.247 443.605 840.017 443.605ZM856.4 443.47H857.495V447.04H855.98V445H846.125V436.9H847.76V443.47H850.475V436.9H852.065V443.47H854.765V436.9H856.4V443.47ZM865.884 436.9H867.174V445H865.824L865.659 444.01C864.879 444.8 863.904 445.195 862.734 445.195C861.524 445.195 860.514 444.79 859.704 443.98C858.904 443.17 858.504 442.16 858.504 440.95C858.504 439.73 858.904 438.72 859.704 437.92C860.514 437.11 861.524 436.705 862.734 436.705C863.924 436.705 864.909 437.105 865.689 437.905L865.884 436.9ZM860.949 442.855C861.459 443.355 862.094 443.605 862.854 443.605C863.624 443.605 864.254 443.355 864.744 442.855C865.244 442.345 865.494 441.71 865.494 440.95C865.494 440.18 865.244 439.545 864.744 439.045C864.254 438.545 863.624 438.295 862.854 438.295C862.354 438.295 861.899 438.41 861.489 438.64C861.089 438.87 860.774 439.19 860.544 439.6C860.314 440 860.199 440.45 860.199 440.95C860.199 441.71 860.449 442.345 860.949 442.855ZM871.813 436.9H875.683V445H874.063V442.03H872.368L870.598 445H868.783L870.718 441.76C870.228 441.56 869.843 441.26 869.563 440.86C869.283 440.46 869.143 439.995 869.143 439.465C869.143 438.735 869.398 438.125 869.908 437.635C870.418 437.145 871.053 436.9 871.813 436.9ZM872.038 440.575H874.063V438.37H872.038C871.798 438.37 871.583 438.42 871.393 438.52C871.213 438.61 871.073 438.74 870.973 438.91C870.873 439.07 870.823 439.26 870.823 439.48C870.823 439.8 870.933 440.065 871.153 440.275C871.373 440.475 871.668 440.575 872.038 440.575ZM886.938 445L884.508 441.55H883.503V445H881.838V436.9H883.503V440.035H884.523L886.728 436.9H888.693L885.948 440.785L888.993 445H886.938ZM896.084 436.9H897.014V445H895.424V439.855L891.104 445H890.144V436.9H891.749V442L896.084 436.9ZM908.027 436.9H909.662V445H899.387V436.9H901.022V443.47H903.737V436.9H905.327V443.47H908.027V436.9ZM917.129 445L914.699 441.55H913.694V445H912.029V436.9H913.694V440.035H914.714L916.919 436.9H918.884L916.139 440.785L919.184 445H917.129ZM926.851 436.9H928.141V445H926.791L926.626 444.01C925.846 444.8 924.871 445.195 923.701 445.195C922.491 445.195 921.481 444.79 920.671 443.98C919.871 443.17 919.471 442.16 919.471 440.95C919.471 439.73 919.871 438.72 920.671 437.92C921.481 437.11 922.491 436.705 923.701 436.705C924.891 436.705 925.876 437.105 926.656 437.905L926.851 436.9ZM921.916 442.855C922.426 443.355 923.061 443.605 923.821 443.605C924.591 443.605 925.221 443.355 925.711 442.855C926.211 442.345 926.461 441.71 926.461 440.95C926.461 440.18 926.211 439.545 925.711 439.045C925.221 438.545 924.591 438.295 923.821 438.295C923.321 438.295 922.866 438.41 922.456 438.64C922.056 438.87 921.741 439.19 921.511 439.6C921.281 440 921.166 440.45 921.166 440.95C921.166 441.71 921.416 442.345 921.916 442.855Z" fill="black"/>
<path d="M852.063 41.76C852.843 41.9 853.468 42.255 853.938 42.825C854.418 43.395 854.658 44.075 854.658 44.865C854.658 45.825 854.328 46.62 853.668 47.25C853.018 47.87 852.203 48.18 851.223 48.18C850.273 48.18 849.483 47.885 848.853 47.295C848.233 46.695 847.903 45.925 847.863 44.985H849.483C849.513 45.485 849.688 45.89 850.008 46.2C850.328 46.5 850.733 46.65 851.223 46.65C851.743 46.65 852.173 46.48 852.513 46.14C852.853 45.79 853.023 45.35 853.023 44.82C853.023 44.56 852.973 44.32 852.873 44.1C852.773 43.87 852.638 43.675 852.468 43.515C852.298 43.355 852.093 43.235 851.853 43.155C851.613 43.065 851.353 43.02 851.073 43.02H849.813V42.705L851.883 39.495H848.163V38.025H854.268V38.355L852.063 41.76ZM863.133 44.55V45.975H862.173V48H860.613V45.975H855.648V45.645L859.053 38.025H860.703L857.793 44.55H860.643L860.913 41.775H862.173V44.55H863.133ZM867.466 41.61C868.486 41.61 869.321 41.92 869.971 42.54C870.631 43.16 870.961 43.935 870.961 44.865C870.961 45.815 870.636 46.605 869.986 47.235C869.336 47.865 868.526 48.18 867.556 48.18C866.596 48.18 865.796 47.88 865.156 47.28C864.526 46.68 864.196 45.915 864.166 44.985H865.786C865.806 45.475 865.981 45.875 866.311 46.185C866.641 46.495 867.056 46.65 867.556 46.65C868.066 46.65 868.486 46.48 868.816 46.14C869.156 45.8 869.326 45.375 869.326 44.865C869.326 44.695 869.301 44.53 869.251 44.37C869.211 44.21 869.151 44.065 869.071 43.935C868.991 43.795 868.891 43.67 868.771 43.56C868.661 43.45 868.536 43.355 868.396 43.275C868.256 43.195 868.101 43.135 867.931 43.095C867.771 43.055 867.596 43.035 867.406 43.035H864.766L864.571 42.81L865.111 38.025H870.271V39.495H866.416L866.191 41.61H867.466ZM886.803 48H885.198L884.223 42.48L881.508 47.91H881.163L878.463 42.48L877.488 48H875.883L877.338 39.9H878.748L881.343 45.075L883.953 39.9H885.348L886.803 48ZM894.465 39.9H895.395V48H893.805V42.855L889.485 48H888.525V39.9H890.13V45L894.465 39.9ZM903.168 39.9H904.803V48H903.168V44.61H899.418V48H897.768V39.9H899.418V43.08H903.168V39.9ZM906.963 48V46.08H908.793V48H906.963Z" fill="black"/>
<path d="M1034.31 434.5H1042.18V445H1040.44V436.105H1036.03V445H1034.31V434.5ZM1051.41 443.995C1050.59 444.795 1049.56 445.195 1048.32 445.195C1047.08 445.195 1046.05 444.795 1045.22 443.995C1044.4 443.185 1043.99 442.17 1043.99 440.95C1043.99 440.15 1044.17 439.425 1044.54 438.775C1044.92 438.125 1045.44 437.62 1046.1 437.26C1046.77 436.89 1047.51 436.705 1048.32 436.705C1049.13 436.705 1049.87 436.89 1050.53 437.26C1051.2 437.62 1051.72 438.125 1052.09 438.775C1052.47 439.425 1052.66 440.15 1052.66 440.95C1052.66 442.17 1052.24 443.185 1051.41 443.995ZM1048.32 443.605C1048.83 443.605 1049.29 443.495 1049.69 443.275C1050.09 443.045 1050.4 442.73 1050.62 442.33C1050.85 441.92 1050.96 441.46 1050.96 440.95C1050.96 440.18 1050.71 439.545 1050.21 439.045C1049.72 438.545 1049.09 438.295 1048.32 438.295C1047.55 438.295 1046.92 438.545 1046.42 439.045C1045.93 439.545 1045.68 440.18 1045.68 440.95C1045.68 441.72 1045.93 442.355 1046.42 442.855C1046.92 443.355 1047.55 443.605 1048.32 443.605ZM1061.31 443.425H1062.36V447.04H1060.84V445H1054.93V447.04H1053.42V443.425H1054.27C1054.5 443.235 1054.68 442.945 1054.8 442.555C1054.93 442.165 1055.04 441.575 1055.14 440.785C1055.24 439.985 1055.37 438.69 1055.53 436.9H1061.31V443.425ZM1057 438.37C1056.89 440 1056.77 441.17 1056.63 441.88C1056.49 442.59 1056.28 443.105 1056.01 443.425H1059.67V438.37H1057ZM1069.63 440.77C1069.82 440.85 1069.99 440.955 1070.14 441.085C1070.3 441.205 1070.44 441.35 1070.55 441.52C1070.66 441.68 1070.74 441.86 1070.8 442.06C1070.86 442.26 1070.89 442.465 1070.89 442.675C1070.89 443.335 1070.65 443.89 1070.17 444.34C1069.69 444.78 1069.09 445 1068.37 445H1064.14V436.9H1068.31C1068.99 436.9 1069.55 437.095 1069.98 437.485C1070.42 437.865 1070.64 438.36 1070.64 438.97C1070.64 439.35 1070.55 439.7 1070.37 440.02C1070.19 440.34 1069.94 440.59 1069.63 440.77ZM1068.99 439.24C1068.99 438.96 1068.89 438.735 1068.7 438.565C1068.52 438.395 1068.28 438.31 1067.98 438.31H1065.78V440.17H1067.98C1068.28 440.17 1068.52 440.085 1068.7 439.915C1068.89 439.745 1068.99 439.52 1068.99 439.24ZM1068.07 443.545C1068.4 443.545 1068.67 443.45 1068.87 443.26C1069.08 443.07 1069.18 442.83 1069.18 442.54C1069.18 442.24 1069.08 441.995 1068.87 441.805C1068.66 441.615 1068.39 441.52 1068.06 441.52H1065.78V443.545H1068.07ZM1077.3 440.695C1078.01 441.115 1078.37 441.77 1078.37 442.66C1078.37 443.41 1078.07 444.02 1077.47 444.49C1076.87 444.96 1076.1 445.195 1075.16 445.195C1074.25 445.195 1073.5 444.96 1072.92 444.49C1072.35 444.01 1072.04 443.37 1071.99 442.57H1073.51C1073.57 442.92 1073.74 443.195 1074.03 443.395C1074.32 443.595 1074.7 443.695 1075.16 443.695C1075.63 443.695 1076.01 443.59 1076.3 443.38C1076.59 443.16 1076.73 442.88 1076.73 442.54C1076.73 442.21 1076.6 441.94 1076.34 441.73C1076.09 441.52 1075.76 441.415 1075.34 441.415H1074.29V440.125H1075.34C1075.72 440.125 1076.02 440.04 1076.24 439.87C1076.46 439.69 1076.57 439.45 1076.57 439.15C1076.57 438.83 1076.44 438.575 1076.18 438.385C1075.92 438.195 1075.57 438.1 1075.14 438.1C1074.75 438.1 1074.43 438.19 1074.17 438.37C1073.92 438.55 1073.77 438.8 1073.72 439.12H1072.2C1072.24 438.4 1072.54 437.82 1073.09 437.38C1073.65 436.93 1074.35 436.705 1075.19 436.705C1076.05 436.705 1076.75 436.925 1077.3 437.365C1077.86 437.805 1078.14 438.36 1078.14 439.03C1078.14 439.75 1077.86 440.305 1077.3 440.695ZM1087.22 443.425H1088.27V447.04H1086.75V445H1080.84V447.04H1079.33V443.425H1080.18C1080.41 443.235 1080.59 442.945 1080.71 442.555C1080.84 442.165 1080.95 441.575 1081.05 440.785C1081.15 439.985 1081.28 438.69 1081.44 436.9H1087.22V443.425ZM1082.91 438.37C1082.8 440 1082.68 441.17 1082.54 441.88C1082.4 442.59 1082.19 443.105 1081.92 443.425H1085.58V438.37H1082.91ZM1096.74 443.995C1095.92 444.795 1094.89 445.195 1093.65 445.195C1092.41 445.195 1091.37 444.795 1090.54 443.995C1089.72 443.185 1089.31 442.17 1089.31 440.95C1089.31 440.15 1089.5 439.425 1089.87 438.775C1090.25 438.125 1090.77 437.62 1091.43 437.26C1092.1 436.89 1092.84 436.705 1093.65 436.705C1094.46 436.705 1095.19 436.89 1095.85 437.26C1096.52 437.62 1097.04 438.125 1097.41 438.775C1097.79 439.425 1097.98 440.15 1097.98 440.95C1097.98 442.17 1097.57 443.185 1096.74 443.995ZM1093.65 443.605C1094.16 443.605 1094.61 443.495 1095.01 443.275C1095.41 443.045 1095.72 442.73 1095.94 442.33C1096.17 441.92 1096.29 441.46 1096.29 440.95C1096.29 440.18 1096.04 439.545 1095.54 439.045C1095.05 438.545 1094.42 438.295 1093.65 438.295C1092.88 438.295 1092.24 438.545 1091.74 439.045C1091.25 439.545 1091.01 440.18 1091.01 440.95C1091.01 441.72 1091.25 442.355 1091.74 442.855C1092.24 443.355 1092.88 443.605 1093.65 443.605ZM1108.39 436.9H1110.03V445H1099.75V436.9H1101.39V443.47H1104.1V436.9H1105.69V443.47H1108.39V436.9ZM1117.8 436.9H1119.43V445H1117.8V441.61H1114.05V445H1112.4V436.9H1114.05V440.08H1117.8V436.9ZM1128.58 436.9H1129.87V445H1128.52L1128.36 444.01C1127.58 444.8 1126.6 445.195 1125.43 445.195C1124.22 445.195 1123.21 444.79 1122.4 443.98C1121.6 443.17 1121.2 442.16 1121.2 440.95C1121.2 439.73 1121.6 438.72 1122.4 437.92C1123.21 437.11 1124.22 436.705 1125.43 436.705C1126.62 436.705 1127.61 437.105 1128.39 437.905L1128.58 436.9ZM1123.65 442.855C1124.16 443.355 1124.79 443.605 1125.55 443.605C1126.32 443.605 1126.95 443.355 1127.44 442.855C1127.94 442.345 1128.19 441.71 1128.19 440.95C1128.19 440.18 1127.94 439.545 1127.44 439.045C1126.95 438.545 1126.32 438.295 1125.55 438.295C1125.05 438.295 1124.6 438.41 1124.19 438.64C1123.79 438.87 1123.47 439.19 1123.24 439.6C1123.01 440 1122.9 440.45 1122.9 440.95C1122.9 441.71 1123.15 442.345 1123.65 442.855ZM1134.51 436.9H1138.38V445H1136.76V442.03H1135.06L1133.29 445H1131.48L1133.41 441.76C1132.92 441.56 1132.54 441.26 1132.26 440.86C1131.98 440.46 1131.84 439.995 1131.84 439.465C1131.84 438.735 1132.09 438.125 1132.6 437.635C1133.11 437.145 1133.75 436.9 1134.51 436.9ZM1134.73 440.575H1136.76V438.37H1134.73C1134.49 438.37 1134.28 438.42 1134.09 438.52C1133.91 438.61 1133.77 438.74 1133.67 438.91C1133.57 439.07 1133.52 439.26 1133.52 439.48C1133.52 439.8 1133.63 440.065 1133.85 440.275C1134.07 440.475 1134.36 440.575 1134.73 440.575ZM1149.63 445L1147.2 441.55H1146.2V445H1144.53V436.9H1146.2V440.035H1147.22L1149.42 436.9H1151.39L1148.64 440.785L1151.69 445H1149.63ZM1158.78 436.9H1159.71V445H1158.12V439.855L1153.8 445H1152.84V436.9H1154.45V442L1158.78 436.9ZM1170.72 436.9H1172.36V445H1162.08V436.9H1163.72V443.47H1166.43V436.9H1168.02V443.47H1170.72V436.9ZM1179.83 445L1177.4 441.55H1176.39V445H1174.73V436.9H1176.39V440.035H1177.41L1179.62 436.9H1181.58L1178.84 440.785L1181.88 445H1179.83ZM1189.55 436.9H1190.84V445H1189.49L1189.32 444.01C1188.54 444.8 1187.57 445.195 1186.4 445.195C1185.19 445.195 1184.18 444.79 1183.37 443.98C1182.57 443.17 1182.17 442.16 1182.17 440.95C1182.17 439.73 1182.57 438.72 1183.37 437.92C1184.18 437.11 1185.19 436.705 1186.4 436.705C1187.59 436.705 1188.57 437.105 1189.35 437.905L1189.55 436.9ZM1184.61 442.855C1185.12 443.355 1185.76 443.605 1186.52 443.605C1187.29 443.605 1187.92 443.355 1188.41 442.855C1188.91 442.345 1189.16 441.71 1189.16 440.95C1189.16 440.18 1188.91 439.545 1188.41 439.045C1187.92 438.545 1187.29 438.295 1186.52 438.295C1186.02 438.295 1185.56 438.41 1185.15 438.64C1184.75 438.87 1184.44 439.19 1184.21 439.6C1183.98 440 1183.86 440.45 1183.86 440.95C1183.86 441.71 1184.11 442.345 1184.61 442.855Z" fill="black"/>
<path d="M1088.37 44.55V45.975H1087.41V48H1085.85V45.975H1080.88V45.645L1084.29 38.025H1085.94L1083.03 44.55H1085.88L1086.15 41.775H1087.41V44.55H1088.37ZM1093.51 48.18C1092.3 48.18 1091.34 47.715 1090.63 46.785C1089.92 45.855 1089.56 44.595 1089.56 43.005C1089.56 41.415 1089.91 40.16 1090.61 39.24C1091.32 38.31 1092.29 37.845 1093.51 37.845C1094.72 37.845 1095.67 38.31 1096.37 39.24C1097.08 40.16 1097.44 41.415 1097.44 43.005C1097.44 44.595 1097.08 45.855 1096.37 46.785C1095.66 47.715 1094.71 48.18 1093.51 48.18ZM1093.51 46.65C1094.23 46.65 1094.79 46.33 1095.19 45.69C1095.6 45.05 1095.8 44.155 1095.8 43.005C1095.8 42.245 1095.71 41.595 1095.52 41.055C1095.34 40.505 1095.07 40.09 1094.72 39.81C1094.38 39.52 1093.98 39.375 1093.51 39.375C1093.03 39.375 1092.61 39.52 1092.26 39.81C1091.91 40.09 1091.65 40.505 1091.47 41.055C1091.29 41.595 1091.2 42.245 1091.2 43.005C1091.2 44.155 1091.4 45.05 1091.8 45.69C1092.21 46.33 1092.78 46.65 1093.51 46.65ZM1102.1 41.61C1103.12 41.61 1103.96 41.92 1104.61 42.54C1105.27 43.16 1105.6 43.935 1105.6 44.865C1105.6 45.815 1105.27 46.605 1104.62 47.235C1103.97 47.865 1103.16 48.18 1102.19 48.18C1101.23 48.18 1100.43 47.88 1099.79 47.28C1099.16 46.68 1098.83 45.915 1098.8 44.985H1100.42C1100.44 45.475 1100.62 45.875 1100.95 46.185C1101.28 46.495 1101.69 46.65 1102.19 46.65C1102.7 46.65 1103.12 46.48 1103.45 46.14C1103.79 45.8 1103.96 45.375 1103.96 44.865C1103.96 44.695 1103.94 44.53 1103.89 44.37C1103.85 44.21 1103.79 44.065 1103.71 43.935C1103.63 43.795 1103.53 43.67 1103.41 43.56C1103.3 43.45 1103.17 43.355 1103.03 43.275C1102.89 43.195 1102.74 43.135 1102.57 43.095C1102.41 43.055 1102.23 43.035 1102.04 43.035H1099.4L1099.21 42.81L1099.75 38.025H1104.91V39.495H1101.05L1100.83 41.61H1102.1ZM1121.44 48H1119.84L1118.86 42.48L1116.15 47.91H1115.8L1113.1 42.48L1112.13 48H1110.52L1111.98 39.9H1113.39L1115.98 45.075L1118.59 39.9H1119.99L1121.44 48ZM1129.1 39.9H1130.03V48H1128.44V42.855L1124.12 48H1123.16V39.9H1124.77V45L1129.1 39.9ZM1137.81 39.9H1139.44V48H1137.81V44.61H1134.06V48H1132.41V39.9H1134.06V43.08H1137.81V39.9ZM1141.6 48V46.08H1143.43V48H1141.6Z" fill="black"/>
<line opacity="0.1" y1="126.5" x2="1225" y2="126.5" stroke="black"/>
<line opacity="0.1" y1="192.5" x2="1225" y2="192.5" stroke="black"/>
<line opacity="0.1" y1="258.5" x2="1225" y2="258.5" stroke="black"/>
<line opacity="0.1" y1="324.5" x2="1225" y2="324.5" stroke="black"/>
<line x1="176" y1="83.5" x2="1113" y2="83.5" stroke="#92278F"/>
<path d="M176.5 103.5L409.5 159.5L644.5 293.5L878.5 225.5L1112.5 293.5" stroke="#005350"/>
<defs>
<linearGradient id="paint0_linear" x1="176.5" y1="0" x2="176.5" y2="479" gradientUnits="userSpaceOnUse">
<stop stop-color="#DAD9EB"/>
<stop offset="0.316726" stop-color="#F0F0F7"/>
<stop offset="0.635417" stop-color="#F0F0F7"/>
<stop offset="1" stop-color="#DAD9EB"/>
</linearGradient>
<linearGradient id="paint1_linear" x1="644.5" y1="0" x2="644.5" y2="479" gradientUnits="userSpaceOnUse">
<stop stop-color="#F9F3D3"/>
<stop offset="0.316726" stop-color="#FCFAEB"/>
<stop offset="0.635417" stop-color="#FCFAEB"/>
<stop offset="1" stop-color="#F9F3D3"/>
</linearGradient>
<linearGradient id="paint2_linear" x1="1112.5" y1="0" x2="1112.5" y2="479" gradientUnits="userSpaceOnUse">
<stop stop-color="#F1DBDB"/>
<stop offset="0.316726" stop-color="#FAF1F1"/>
<stop offset="0.635417" stop-color="#FAF1F1"/>
<stop offset="1" stop-color="#F1DBDB"/>
</linearGradient>
<linearGradient id="paint3_linear" x1="410.5" y1="0" x2="410.5" y2="479" gradientUnits="userSpaceOnUse">
<stop stop-color="#DAEBF6"/>
<stop offset="0.316726" stop-color="#EEF6FB"/>
<stop offset="0.635417" stop-color="#EEF6FB"/>
<stop offset="1" stop-color="#DAEBF6"/>
</linearGradient>
<linearGradient id="paint4_linear" x1="878.5" y1="0" x2="878.5" y2="479" gradientUnits="userSpaceOnUse">
<stop stop-color="#D8EBD5"/>
<stop offset="0.316726" stop-color="#E9F4E9"/>
<stop offset="0.635417" stop-color="#E9F4E9"/>
<stop offset="1" stop-color="#D8EBD5"/>
</linearGradient>
</defs>
</svg>
