<svg viewBox="0 0 58 127" fill="none" xmlns="http://www.w3.org/2000/svg">
<path d="M47.4154 74.9138V18.853C47.4154 8.93043 38.7062 0.888916 29.0307 0.888916H28.7917C19.1162 0.888916 11.4726 8.93043 11.4726 18.853V74.5946C5.12944 79.8251 1 87.8262 1 96.804C1 112.559 13.4031 125.333 28.7706 125.333C44.1381 125.333 57 112.559 57 96.804C56.9958 88.0071 51.6442 80.1486 47.4154 74.9138Z" stroke="#AAAAAA" stroke-width="1.5" stroke-miterlimit="10"/>
<path d="M32.8024 87.0806V25.7274C32.8024 23.4656 31.6737 21.6299 29.707 21.6299H28.9136C26.9469 21.6299 25.3526 23.4656 25.3526 25.7274V87.0241C20.8437 88.5138 17.5938 92.675 17.5938 97.5866C17.5938 103.747 22.7005 108.741 29.0012 108.741C35.3018 108.741 40.4086 103.747 40.4086 97.5866C40.4086 92.7297 37.2294 88.6103 32.8024 87.0806Z" fill="#BC87C1"/>
</svg>
