<svg width="20" height="12" viewBox="0 0 20 12" fill="none" xmlns="http://www.w3.org/2000/svg">
<path d="M16.5963 6.69027C16.273 6.28193 16.3655 6.10025 16.5963 5.73523C16.6005 5.73109 19.2698 2.04261 19.5448 0.791746L19.5464 0.790925C19.6831 0.33509 19.5464 3.90424e-05 18.8856 3.90424e-05H16.6988C16.1421 3.90424e-05 15.8855 0.287549 15.748 0.609239C15.748 0.609239 14.6346 3.27433 13.0595 5.00189C12.5512 5.50109 12.3162 5.66109 12.0386 5.66109C11.902 5.66109 11.6895 5.50109 11.6895 5.04525V0.790886C11.6895 0.244188 11.5337 0 11.0728 0H7.6344C7.28525 0 7.0777 0.255009 7.0777 0.492517C7.0777 1.01089 7.86523 1.13004 7.94691 2.58841V5.7527C7.94691 6.44604 7.82105 6.57354 7.5419 6.57354C6.79855 6.57354 4.99431 3.89767 3.92509 0.835029C3.70927 0.240868 3.4984 0.000859528 2.9376 0.000859528H0.750025C0.125825 0.000859528 0 0.288369 0 0.61006C0 1.1784 0.743345 4.00435 3.45676 7.73776C5.26518 10.2862 7.8119 11.6671 10.1287 11.6671C11.5212 11.6671 11.6912 11.3604 11.6912 10.8329C11.6912 8.39782 11.5654 8.16782 12.2629 8.16782C12.5862 8.16782 13.1429 8.32782 14.443 9.55704C15.9289 11.0146 16.173 11.6672 17.0048 11.6672H19.1915C19.8148 11.6672 20.1307 11.3604 19.949 10.7554C19.533 9.48282 16.723 6.86523 16.5963 6.69027Z" fill="#005350"/>
</svg>
