<svg viewBox="0 0 133 122" fill="none" xmlns="http://www.w3.org/2000/svg">
<path d="M128.81 109.342C133.044 102.036 133.069 93.3299 128.864 86.0547L86.6516 12.9472C82.4716 5.58736 74.9232 1.2207 66.4612 1.2207C57.9953 1.2207 50.4489 5.61426 46.2688 12.9183L4.00091 86.1048C-0.204146 93.4646 -0.177215 102.227 4.0817 109.533C8.28676 116.758 15.8082 121.097 24.2183 121.097H108.539C116.976 121.097 124.551 116.702 128.81 109.342Z" stroke="#AAAAAA" stroke-width="1.5" stroke-miterlimit="10"/>
<path d="M66.4328 87.5378C62.4547 87.5378 59.1172 90.8734 59.1172 94.8553C59.1172 98.8372 62.4528 102.171 66.4328 102.171C70.2666 102.171 73.7483 98.8372 73.5733 95.0304C73.7483 90.8445 70.4416 87.5378 66.4328 87.5378Z" fill="#BC87C1"/>
<path d="M64.6165 36.183C61.1328 37.1795 58.9688 40.338 58.9688 44.1718C59.1457 46.4821 59.29 48.8232 59.465 51.1354C59.9652 59.9437 60.4615 68.575 60.9578 77.3852C61.1328 80.3688 63.445 82.5348 66.4305 82.5348C69.416 82.5348 71.757 80.2226 71.9032 77.2083C71.9032 75.3943 71.9032 73.7246 72.0802 71.8817C72.3995 66.232 72.7535 60.5862 73.0747 54.9384C73.2498 51.2816 73.573 47.6228 73.748 43.9641C73.748 42.6483 73.573 41.4768 73.0747 40.3092C71.5801 37.0332 68.0983 35.3636 64.6165 36.183Z" fill="#BC87C1"/>
</svg>
